STARTFONT 2.1
FONT -FontForge-Liberation Sans-Bold-R-Normal-Sans--14-100-100-100-P-85-ISO10646-1
SIZE 10 100 100
FONTBOUNDINGBOX 18 18 -3 -4
COMMENT "Generated by fontforge, http://fontforge.sourceforge.net"
COMMENT "Digitized data (c) 2007 Ascender Corporation. All rights reserved."
STARTPROPERTIES 40
FOUNDRY "FontForge"
FAMILY_NAME "Liberation Sans"
WEIGHT_NAME "Bold"
SLANT "R"
SETWIDTH_NAME "Normal"
ADD_STYLE_NAME "Sans"
PIXEL_SIZE 14
POINT_SIZE 100
RESOLUTION_X 100
RESOLUTION_Y 100
SPACING "P"
AVERAGE_WIDTH 85
CHARSET_REGISTRY "ISO10646"
CHARSET_ENCODING "1"
FONTNAME_REGISTRY ""
CHARSET_COLLECTIONS "ASCII ISOLatin1Encoding ISO8859-2 ISO8859-5 ISO8859-7 ISO8859-9 ISO8859-4 Symbol ISO10646-1"
FONT_NAME "LiberationSans-Bold"
FACE_NAME "Liberation Sans Bold"
COPYRIGHT "Digitized data (c) 2007 Ascender Corporation. All rights reserved."
FONT_VERSION "1.04"
FONT_ASCENT 11
FONT_DESCENT 3
UNDERLINE_POSITION -5
UNDERLINE_THICKNESS 2
X_HEIGHT 7
CAP_HEIGHT 9
RAW_ASCENT 799
RAW_DESCENT 200
NORM_SPACE 4
RELATIVE_WEIGHT 70
RELATIVE_SETWIDTH 50
SUPERSCRIPT_X 0
SUPERSCRIPT_Y 6
SUPERSCRIPT_SIZE 9
SUBSCRIPT_X 0
SUBSCRIPT_Y 1
SUBSCRIPT_SIZE 9
FIGURE_WIDTH 8
AVG_LOWERCASE_WIDTH 80
AVG_UPPERCASE_WIDTH 96
ENDPROPERTIES
CHARS 682
STARTCHAR space
ENCODING 32
SWIDTH 277 0
DWIDTH 4 0
BBX 1 1 0 0
BITMAP
00
ENDCHAR
STARTCHAR exclam
ENCODING 33
SWIDTH 333 0
DWIDTH 4 0
BBX 2 10 1 0
BITMAP
C0
C0
C0
C0
C0
C0
C0
00
C0
C0
ENDCHAR
STARTCHAR quotedbl
ENCODING 34
SWIDTH 474 0
DWIDTH 7 0
BBX 5 4 1 6
BITMAP
D8
D8
D8
D8
ENDCHAR
STARTCHAR numbersign
ENCODING 35
SWIDTH 556 0
DWIDTH 8 0
BBX 8 10 0 0
BITMAP
12
12
12
7F
24
24
FE
48
48
48
ENDCHAR
STARTCHAR dollar
ENCODING 36
SWIDTH 556 0
DWIDTH 8 0
BBX 6 11 1 -1
BITMAP
10
78
FC
EC
E0
78
0C
CC
FC
78
10
ENDCHAR
STARTCHAR percent
ENCODING 37
SWIDTH 889 0
DWIDTH 10 0
BBX 10 10 0 0
BITMAP
6100
9200
9200
9400
9580
6A40
0A40
1240
1240
2180
ENDCHAR
STARTCHAR ampersand
ENCODING 38
SWIDTH 722 0
DWIDTH 10 0
BBX 8 10 1 0
BITMAP
38
7C
6C
78
63
F3
DE
CC
FF
73
ENDCHAR
STARTCHAR quotesingle
ENCODING 39
SWIDTH 237 0
DWIDTH 3 0
BBX 2 4 0 6
BITMAP
C0
C0
C0
C0
ENDCHAR
STARTCHAR parenleft
ENCODING 40
SWIDTH 333 0
DWIDTH 5 0
BBX 4 14 1 -3
BITMAP
30
60
60
C0
C0
C0
C0
C0
C0
C0
C0
60
60
30
ENDCHAR
STARTCHAR parenright
ENCODING 41
SWIDTH 333 0
DWIDTH 5 0
BBX 4 14 0 -3
BITMAP
C0
60
60
30
30
30
30
30
30
30
30
60
60
C0
ENDCHAR
STARTCHAR asterisk
ENCODING 42
SWIDTH 389 0
DWIDTH 5 0
BBX 5 5 0 5
BITMAP
20
A8
F8
50
50
ENDCHAR
STARTCHAR plus
ENCODING 43
SWIDTH 583 0
DWIDTH 8 0
BBX 8 8 0 1
BITMAP
18
18
18
FF
FF
18
18
18
ENDCHAR
STARTCHAR comma
ENCODING 44
SWIDTH 277 0
DWIDTH 4 0
BBX 2 4 1 -2
BITMAP
C0
C0
40
C0
ENDCHAR
STARTCHAR hyphen
ENCODING 45
SWIDTH 333 0
DWIDTH 5 0
BBX 3 2 1 2
BITMAP
E0
E0
ENDCHAR
STARTCHAR period
ENCODING 46
SWIDTH 277 0
DWIDTH 4 0
BBX 2 2 1 0
BITMAP
C0
C0
ENDCHAR
STARTCHAR slash
ENCODING 47
SWIDTH 277 0
DWIDTH 4 0
BBX 4 11 0 0
BITMAP
30
30
30
20
60
60
60
40
C0
C0
C0
ENDCHAR
STARTCHAR zero
ENCODING 48
SWIDTH 556 0
DWIDTH 8 0
BBX 6 10 1 0
BITMAP
78
78
CC
CC
CC
CC
CC
CC
78
78
ENDCHAR
STARTCHAR one
ENCODING 49
SWIDTH 556 0
DWIDTH 8 0
BBX 6 10 1 0
BITMAP
70
F0
B0
30
30
30
30
30
FC
FC
ENDCHAR
STARTCHAR two
ENCODING 50
SWIDTH 556 0
DWIDTH 8 0
BBX 6 10 1 0
BITMAP
78
FC
CC
0C
1C
38
70
60
FC
FC
ENDCHAR
STARTCHAR three
ENCODING 51
SWIDTH 556 0
DWIDTH 8 0
BBX 6 10 1 0
BITMAP
78
FC
CC
0C
38
38
0C
CC
FC
78
ENDCHAR
STARTCHAR four
ENCODING 52
SWIDTH 556 0
DWIDTH 8 0
BBX 7 10 0 0
BITMAP
1C
1C
3C
2C
4C
CC
FE
FE
0C
0C
ENDCHAR
STARTCHAR five
ENCODING 53
SWIDTH 556 0
DWIDTH 8 0
BBX 6 10 1 0
BITMAP
FC
FC
C0
F8
FC
0C
0C
CC
FC
78
ENDCHAR
STARTCHAR six
ENCODING 54
SWIDTH 556 0
DWIDTH 8 0
BBX 6 10 1 0
BITMAP
38
7C
CC
C0
F8
FC
CC
CC
7C
78
ENDCHAR
STARTCHAR seven
ENCODING 55
SWIDTH 556 0
DWIDTH 8 0
BBX 6 10 1 0
BITMAP
FC
FC
0C
18
18
30
30
60
60
60
ENDCHAR
STARTCHAR eight
ENCODING 56
SWIDTH 556 0
DWIDTH 8 0
BBX 6 10 1 0
BITMAP
78
FC
CC
CC
78
78
CC
CC
FC
78
ENDCHAR
STARTCHAR nine
ENCODING 57
SWIDTH 556 0
DWIDTH 8 0
BBX 6 10 1 0
BITMAP
78
F8
CC
CC
FC
7C
0C
CC
F8
70
ENDCHAR
STARTCHAR colon
ENCODING 58
SWIDTH 333 0
DWIDTH 4 0
BBX 2 8 1 0
BITMAP
C0
C0
00
00
00
00
C0
C0
ENDCHAR
STARTCHAR semicolon
ENCODING 59
SWIDTH 333 0
DWIDTH 4 0
BBX 2 10 1 -2
BITMAP
C0
C0
00
00
00
00
C0
C0
40
C0
ENDCHAR
STARTCHAR less
ENCODING 60
SWIDTH 583 0
DWIDTH 8 0
BBX 6 8 1 1
BITMAP
04
3C
F8
E0
E0
F8
3C
04
ENDCHAR
STARTCHAR equal
ENCODING 61
SWIDTH 583 0
DWIDTH 8 0
BBX 6 5 1 2
BITMAP
FC
FC
00
FC
FC
ENDCHAR
STARTCHAR greater
ENCODING 62
SWIDTH 583 0
DWIDTH 8 0
BBX 6 8 1 1
BITMAP
80
F0
7C
1C
1C
7C
F0
80
ENDCHAR
STARTCHAR question
ENCODING 63
SWIDTH 610 0
DWIDTH 9 0
BBX 7 10 1 0
BITMAP
3C
FE
C6
06
0C
18
30
00
30
30
ENDCHAR
STARTCHAR at
ENCODING 64
SWIDTH 975 0
DWIDTH 14 0
BBX 12 12 1 -2
BITMAP
0F80
3060
6020
4E90
8990
9110
9110
9320
8DC0
4000
60C0
1F00
ENDCHAR
STARTCHAR A
ENCODING 65
SWIDTH 722 0
DWIDTH 9 0
BBX 9 10 0 0
BITMAP
1C00
1C00
3600
3600
3600
6300
7F00
7F00
E180
C180
ENDCHAR
STARTCHAR B
ENCODING 66
SWIDTH 722 0
DWIDTH 10 0
BBX 8 10 1 0
BITMAP
FE
FF
C3
C3
FE
FE
C3
C3
FF
FE
ENDCHAR
STARTCHAR C
ENCODING 67
SWIDTH 722 0
DWIDTH 10 0
BBX 8 10 1 0
BITMAP
3C
7F
E3
C0
C0
C0
C0
E3
7E
3C
ENDCHAR
STARTCHAR D
ENCODING 68
SWIDTH 722 0
DWIDTH 10 0
BBX 8 10 1 0
BITMAP
FC
FE
C7
C3
C3
C3
C3
C7
FE
FC
ENDCHAR
STARTCHAR E
ENCODING 69
SWIDTH 666 0
DWIDTH 9 0
BBX 7 10 1 0
BITMAP
FE
FE
C0
C0
FC
FC
C0
C0
FE
FE
ENDCHAR
STARTCHAR F
ENCODING 70
SWIDTH 610 0
DWIDTH 9 0
BBX 7 10 1 0
BITMAP
FE
FE
C0
C0
FE
FE
C0
C0
C0
C0
ENDCHAR
STARTCHAR G
ENCODING 71
SWIDTH 777 0
DWIDTH 11 0
BBX 9 10 1 0
BITMAP
3E00
7F00
E180
C000
C000
C780
C780
E180
7F80
3E00
ENDCHAR
STARTCHAR H
ENCODING 72
SWIDTH 722 0
DWIDTH 10 0
BBX 8 10 1 0
BITMAP
C3
C3
C3
C3
FF
FF
C3
C3
C3
C3
ENDCHAR
STARTCHAR I
ENCODING 73
SWIDTH 277 0
DWIDTH 4 0
BBX 2 10 1 0
BITMAP
C0
C0
C0
C0
C0
C0
C0
C0
C0
C0
ENDCHAR
STARTCHAR J
ENCODING 74
SWIDTH 556 0
DWIDTH 8 0
BBX 7 10 0 0
BITMAP
1E
1E
06
06
06
06
06
C6
FE
7C
ENDCHAR
STARTCHAR K
ENCODING 75
SWIDTH 722 0
DWIDTH 10 0
BBX 9 10 1 0
BITMAP
C380
C700
CE00
D800
F800
EC00
CC00
C600
C300
C180
ENDCHAR
STARTCHAR L
ENCODING 76
SWIDTH 610 0
DWIDTH 8 0
BBX 6 10 1 0
BITMAP
C0
C0
C0
C0
C0
C0
C0
C0
FC
FC
ENDCHAR
STARTCHAR M
ENCODING 77
SWIDTH 833 0
DWIDTH 13 0
BBX 11 10 1 0
BITMAP
E0E0
E0E0
F1E0
F1E0
DB60
DB60
DB60
CE60
CE60
C460
ENDCHAR
STARTCHAR N
ENCODING 78
SWIDTH 722 0
DWIDTH 10 0
BBX 8 10 1 0
BITMAP
C3
E3
E3
D3
D3
CB
CB
C7
C7
C3
ENDCHAR
STARTCHAR O
ENCODING 79
SWIDTH 777 0
DWIDTH 11 0
BBX 9 10 1 0
BITMAP
3E00
7F00
E380
C180
C180
C180
C180
E380
7F00
3E00
ENDCHAR
STARTCHAR P
ENCODING 80
SWIDTH 666 0
DWIDTH 9 0
BBX 7 10 1 0
BITMAP
FC
FE
C6
C6
FE
FC
C0
C0
C0
C0
ENDCHAR
STARTCHAR Q
ENCODING 81
SWIDTH 777 0
DWIDTH 11 0
BBX 9 13 1 -3
BITMAP
3E00
7F00
E380
C180
C180
C180
C180
E380
7F00
3E00
0C00
0F00
0700
ENDCHAR
STARTCHAR R
ENCODING 82
SWIDTH 722 0
DWIDTH 10 0
BBX 8 10 1 0
BITMAP
FE
FF
C3
C3
FE
FC
CE
C6
C7
C3
ENDCHAR
STARTCHAR S
ENCODING 83
SWIDTH 666 0
DWIDTH 9 0
BBX 7 10 1 0
BITMAP
7C
FE
C6
C0
78
3E
06
C6
FE
7C
ENDCHAR
STARTCHAR T
ENCODING 84
SWIDTH 610 0
DWIDTH 8 0
BBX 6 10 1 0
BITMAP
FC
FC
30
30
30
30
30
30
30
30
ENDCHAR
STARTCHAR U
ENCODING 85
SWIDTH 722 0
DWIDTH 10 0
BBX 8 10 1 0
BITMAP
C3
C3
C3
C3
C3
C3
C3
E7
7E
3C
ENDCHAR
STARTCHAR V
ENCODING 86
SWIDTH 666 0
DWIDTH 9 0
BBX 9 10 0 0
BITMAP
C180
C180
6300
6300
6300
3600
3600
1400
1C00
1C00
ENDCHAR
STARTCHAR W
ENCODING 87
SWIDTH 943 0
DWIDTH 13 0
BBX 13 10 0 0
BITMAP
C718
C718
C518
65B0
6DB0
6DB0
6CB0
38A0
38E0
38E0
ENDCHAR
STARTCHAR X
ENCODING 88
SWIDTH 666 0
DWIDTH 9 0
BBX 9 10 0 0
BITMAP
C180
6300
3600
3E00
1C00
1C00
3600
6300
6300
C180
ENDCHAR
STARTCHAR Y
ENCODING 89
SWIDTH 666 0
DWIDTH 10 0
BBX 8 10 1 0
BITMAP
C3
66
66
3C
3C
18
18
18
18
18
ENDCHAR
STARTCHAR Z
ENCODING 90
SWIDTH 610 0
DWIDTH 8 0
BBX 6 10 1 0
BITMAP
FC
FC
1C
18
30
30
60
E0
FC
FC
ENDCHAR
STARTCHAR bracketleft
ENCODING 91
SWIDTH 333 0
DWIDTH 5 0
BBX 4 14 1 -3
BITMAP
F0
C0
C0
C0
C0
C0
C0
C0
C0
C0
C0
C0
C0
F0
ENDCHAR
STARTCHAR backslash
ENCODING 92
SWIDTH 277 0
DWIDTH 4 0
BBX 4 11 0 0
BITMAP
C0
C0
C0
40
60
60
60
20
30
30
30
ENDCHAR
STARTCHAR bracketright
ENCODING 93
SWIDTH 333 0
DWIDTH 5 0
BBX 4 14 0 -3
BITMAP
F0
30
30
30
30
30
30
30
30
30
30
30
30
F0
ENDCHAR
STARTCHAR asciicircum
ENCODING 94
SWIDTH 583 0
DWIDTH 8 0
BBX 6 6 1 4
BITMAP
30
78
48
48
CC
84
ENDCHAR
STARTCHAR underscore
ENCODING 95
SWIDTH 556 0
DWIDTH 8 0
BBX 8 1 0 -2
BITMAP
FF
ENDCHAR
STARTCHAR grave
ENCODING 96
SWIDTH 333 0
DWIDTH 5 0
BBX 3 3 0 9
BITMAP
C0
60
20
ENDCHAR
STARTCHAR a
ENCODING 97
SWIDTH 556 0
DWIDTH 8 0
BBX 7 8 1 0
BITMAP
78
FC
0C
7C
FC
CC
FE
66
ENDCHAR
STARTCHAR b
ENCODING 98
SWIDTH 610 0
DWIDTH 9 0
BBX 7 11 1 0
BITMAP
C0
C0
C0
DC
FE
C6
C6
C6
C6
FE
DC
ENDCHAR
STARTCHAR c
ENCODING 99
SWIDTH 556 0
DWIDTH 8 0
BBX 6 8 1 0
BITMAP
78
7C
CC
C0
C0
CC
7C
78
ENDCHAR
STARTCHAR d
ENCODING 100
SWIDTH 610 0
DWIDTH 9 0
BBX 7 11 1 0
BITMAP
06
06
06
76
FE
C6
C6
C6
C6
FE
76
ENDCHAR
STARTCHAR e
ENCODING 101
SWIDTH 556 0
DWIDTH 9 0
BBX 7 8 1 0
BITMAP
38
7C
C6
FE
FE
C0
7E
3C
ENDCHAR
STARTCHAR f
ENCODING 102
SWIDTH 333 0
DWIDTH 5 0
BBX 5 11 0 0
BITMAP
38
78
60
F8
F8
60
60
60
60
60
60
ENDCHAR
STARTCHAR g
ENCODING 103
SWIDTH 610 0
DWIDTH 9 0
BBX 7 11 1 -3
BITMAP
76
FE
C6
C6
C6
C6
FE
76
06
FE
7C
ENDCHAR
STARTCHAR h
ENCODING 104
SWIDTH 610 0
DWIDTH 9 0
BBX 7 11 1 0
BITMAP
C0
C0
C0
DC
FE
E6
C6
C6
C6
C6
C6
ENDCHAR
STARTCHAR i
ENCODING 105
SWIDTH 277 0
DWIDTH 4 0
BBX 2 11 1 0
BITMAP
C0
C0
00
C0
C0
C0
C0
C0
C0
C0
C0
ENDCHAR
STARTCHAR j
ENCODING 106
SWIDTH 277 0
DWIDTH 4 0
BBX 3 14 0 -3
BITMAP
60
60
00
60
60
60
60
60
60
60
60
60
E0
C0
ENDCHAR
STARTCHAR k
ENCODING 107
SWIDTH 556 0
DWIDTH 8 0
BBX 7 11 1 0
BITMAP
C0
C0
C0
CE
DC
F8
F0
D8
CC
CC
C6
ENDCHAR
STARTCHAR l
ENCODING 108
SWIDTH 277 0
DWIDTH 4 0
BBX 2 11 1 0
BITMAP
C0
C0
C0
C0
C0
C0
C0
C0
C0
C0
C0
ENDCHAR
STARTCHAR m
ENCODING 109
SWIDTH 889 0
DWIDTH 12 0
BBX 10 8 1 0
BITMAP
D980
FFC0
CCC0
CCC0
CCC0
CCC0
CCC0
CCC0
ENDCHAR
STARTCHAR n
ENCODING 110
SWIDTH 610 0
DWIDTH 9 0
BBX 7 8 1 0
BITMAP
DC
FE
E6
C6
C6
C6
C6
C6
ENDCHAR
STARTCHAR o
ENCODING 111
SWIDTH 610 0
DWIDTH 9 0
BBX 7 8 1 0
BITMAP
38
7C
C6
C6
C6
C6
7C
38
ENDCHAR
STARTCHAR p
ENCODING 112
SWIDTH 610 0
DWIDTH 9 0
BBX 7 11 1 -3
BITMAP
DC
FE
C6
C6
C6
C6
FE
DC
C0
C0
C0
ENDCHAR
STARTCHAR q
ENCODING 113
SWIDTH 610 0
DWIDTH 9 0
BBX 7 11 1 -3
BITMAP
76
FE
C6
C6
C6
C6
FE
76
06
06
06
ENDCHAR
STARTCHAR r
ENCODING 114
SWIDTH 389 0
DWIDTH 6 0
BBX 5 8 1 0
BITMAP
D8
F8
E0
C0
C0
C0
C0
C0
ENDCHAR
STARTCHAR s
ENCODING 115
SWIDTH 556 0
DWIDTH 8 0
BBX 6 8 1 0
BITMAP
78
FC
C0
F8
3C
0C
FC
78
ENDCHAR
STARTCHAR t
ENCODING 116
SWIDTH 333 0
DWIDTH 5 0
BBX 5 10 0 0
BITMAP
20
60
F8
F8
60
60
60
60
78
78
ENDCHAR
STARTCHAR u
ENCODING 117
SWIDTH 610 0
DWIDTH 9 0
BBX 7 8 1 0
BITMAP
C6
C6
C6
C6
C6
CE
FE
76
ENDCHAR
STARTCHAR v
ENCODING 118
SWIDTH 556 0
DWIDTH 9 0
BBX 7 8 1 0
BITMAP
C6
C6
44
6C
6C
28
38
38
ENDCHAR
STARTCHAR w
ENCODING 119
SWIDTH 777 0
DWIDTH 11 0
BBX 11 8 0 0
BITMAP
CE60
CA60
CA60
4A40
7BC0
7BC0
7180
3180
ENDCHAR
STARTCHAR x
ENCODING 120
SWIDTH 556 0
DWIDTH 8 0
BBX 8 8 0 0
BITMAP
C3
66
3C
3C
38
3C
66
C3
ENDCHAR
STARTCHAR y
ENCODING 121
SWIDTH 556 0
DWIDTH 7 0
BBX 7 11 0 -3
BITMAP
C6
C6
64
6C
6C
28
38
38
30
F0
E0
ENDCHAR
STARTCHAR z
ENCODING 122
SWIDTH 500 0
DWIDTH 7 0
BBX 5 8 1 0
BITMAP
F8
F8
18
30
60
C0
F8
F8
ENDCHAR
STARTCHAR braceleft
ENCODING 123
SWIDTH 389 0
DWIDTH 5 0
BBX 5 14 0 -3
BITMAP
38
60
60
60
60
60
C0
60
60
60
60
60
60
38
ENDCHAR
STARTCHAR bar
ENCODING 124
SWIDTH 279 0
DWIDTH 3 0
BBX 2 14 0 -3
BITMAP
C0
C0
C0
C0
C0
C0
C0
C0
C0
C0
C0
C0
C0
C0
ENDCHAR
STARTCHAR braceright
ENCODING 125
SWIDTH 389 0
DWIDTH 5 0
BBX 5 14 0 -3
BITMAP
E0
30
30
30
30
30
18
30
30
30
30
30
30
E0
ENDCHAR
STARTCHAR asciitilde
ENCODING 126
SWIDTH 583 0
DWIDTH 8 0
BBX 6 3 1 4
BITMAP
E0
FC
1C
ENDCHAR
STARTCHAR space.dup1
ENCODING 160
SWIDTH 277 0
DWIDTH 4 0
BBX 1 1 0 0
BITMAP
00
ENDCHAR
STARTCHAR exclamdown
ENCODING 161
SWIDTH 333 0
DWIDTH 4 0
BBX 2 10 1 -2
BITMAP
C0
C0
00
C0
C0
C0
C0
C0
C0
C0
ENDCHAR
STARTCHAR cent
ENCODING 162
SWIDTH 556 0
DWIDTH 8 0
BBX 7 10 1 -1
BITMAP
10
38
78
D0
90
D6
CE
FC
10
10
ENDCHAR
STARTCHAR sterling
ENCODING 163
SWIDTH 556 0
DWIDTH 8 0
BBX 6 10 1 0
BITMAP
38
7C
60
60
F0
F0
60
6C
FC
F8
ENDCHAR
STARTCHAR currency
ENCODING 164
SWIDTH 556 0
DWIDTH 8 0
BBX 8 8 0 1
BITMAP
42
FF
7E
66
66
7E
FF
42
ENDCHAR
STARTCHAR yen
ENCODING 165
SWIDTH 556 0
DWIDTH 8 0
BBX 8 10 0 0
BITMAP
C3
66
66
3C
3C
FF
18
FF
18
18
ENDCHAR
STARTCHAR brokenbar
ENCODING 166
SWIDTH 279 0
DWIDTH 3 0
BBX 2 14 0 -3
BITMAP
C0
C0
C0
C0
C0
C0
00
00
C0
C0
C0
C0
C0
C0
ENDCHAR
STARTCHAR section
ENCODING 167
SWIDTH 556 0
DWIDTH 8 0
BBX 6 12 1 -2
BITMAP
78
CC
C0
F0
7C
CC
CC
F8
3C
0C
CC
78
ENDCHAR
STARTCHAR dieresis
ENCODING 168
SWIDTH 333 0
DWIDTH 5 0
BBX 5 2 0 9
BITMAP
D8
D8
ENDCHAR
STARTCHAR copyright
ENCODING 169
SWIDTH 736 0
DWIDTH 10 0
BBX 9 10 0 0
BITMAP
1C00
6300
4D00
9480
9080
9080
9480
4D00
6300
1C00
ENDCHAR
STARTCHAR ordfeminine
ENCODING 170
SWIDTH 370 0
DWIDTH 5 0
BBX 5 5 0 5
BITMAP
F0
10
F0
90
F8
ENDCHAR
STARTCHAR guillemotleft
ENCODING 171
SWIDTH 556 0
DWIDTH 8 0
BBX 7 5 1 2
BITMAP
66
CC
CC
CC
66
ENDCHAR
STARTCHAR logicalnot
ENCODING 172
SWIDTH 583 0
DWIDTH 8 0
BBX 6 5 1 1
BITMAP
FC
FC
0C
0C
0C
ENDCHAR
STARTCHAR hyphen.dup2
ENCODING 173
SWIDTH 333 0
DWIDTH 5 0
BBX 3 2 1 2
BITMAP
E0
E0
ENDCHAR
STARTCHAR registered
ENCODING 174
SWIDTH 736 0
DWIDTH 10 0
BBX 9 10 0 0
BITMAP
1C00
6300
5D00
9480
9480
9C80
9480
5500
6300
1C00
ENDCHAR
STARTCHAR macron
ENCODING 175
SWIDTH 552 0
DWIDTH 8 0
BBX 8 1 0 10
BITMAP
FF
ENDCHAR
STARTCHAR degree
ENCODING 176
SWIDTH 399 0
DWIDTH 6 0
BBX 4 4 1 6
BITMAP
60
90
90
60
ENDCHAR
STARTCHAR plusminus
ENCODING 177
SWIDTH 548 0
DWIDTH 8 0
BBX 6 9 1 0
BITMAP
30
30
FC
FC
30
30
00
FC
FC
ENDCHAR
STARTCHAR uni00B2
ENCODING 178
SWIDTH 333 0
DWIDTH 5 0
BBX 4 5 0 5
BITMAP
F0
10
20
40
F0
ENDCHAR
STARTCHAR uni00B3
ENCODING 179
SWIDTH 333 0
DWIDTH 5 0
BBX 4 5 0 5
BITMAP
F0
10
60
10
F0
ENDCHAR
STARTCHAR acute
ENCODING 180
SWIDTH 333 0
DWIDTH 5 0
BBX 3 3 1 9
BITMAP
60
C0
80
ENDCHAR
STARTCHAR u00B5
ENCODING 181
SWIDTH 576 0
DWIDTH 8 0
BBX 6 11 1 -3
BITMAP
CC
CC
CC
CC
CC
CC
FC
FC
C0
C0
C0
ENDCHAR
STARTCHAR paragraph
ENCODING 182
SWIDTH 556 0
DWIDTH 8 0
BBX 6 12 1 -2
BITMAP
7C
E8
E8
E8
68
28
28
28
28
28
28
28
ENDCHAR
STARTCHAR periodcentered
ENCODING 183
SWIDTH 277 0
DWIDTH 4 0
BBX 2 2 1 4
BITMAP
C0
C0
ENDCHAR
STARTCHAR cedilla
ENCODING 184
SWIDTH 333 0
DWIDTH 5 0
BBX 3 3 1 -3
BITMAP
E0
20
E0
ENDCHAR
STARTCHAR uni00B9
ENCODING 185
SWIDTH 333 0
DWIDTH 5 0
BBX 3 5 1 5
BITMAP
40
C0
40
40
E0
ENDCHAR
STARTCHAR ordmasculine
ENCODING 186
SWIDTH 365 0
DWIDTH 5 0
BBX 4 5 0 5
BITMAP
60
90
90
90
60
ENDCHAR
STARTCHAR guillemotright
ENCODING 187
SWIDTH 556 0
DWIDTH 8 0
BBX 7 5 0 2
BITMAP
CC
66
66
66
CC
ENDCHAR
STARTCHAR onequarter
ENCODING 188
SWIDTH 833 0
DWIDTH 12 0
BBX 10 10 1 0
BITMAP
4080
C100
4200
4600
E400
0880
1980
1280
23C0
4080
ENDCHAR
STARTCHAR onehalf
ENCODING 189
SWIDTH 833 0
DWIDTH 12 0
BBX 10 10 1 0
BITMAP
4080
C100
4200
4600
E400
0BC0
1840
1080
2100
43C0
ENDCHAR
STARTCHAR threequarters
ENCODING 190
SWIDTH 833 0
DWIDTH 12 0
BBX 11 10 0 0
BITMAP
F040
1080
6100
1300
F200
0440
0CC0
0940
11E0
2040
ENDCHAR
STARTCHAR questiondown
ENCODING 191
SWIDTH 610 0
DWIDTH 9 0
BBX 7 10 1 -2
BITMAP
18
18
00
18
30
60
C0
C6
FE
78
ENDCHAR
STARTCHAR Agrave
ENCODING 192
SWIDTH 722 0
DWIDTH 9 0
BBX 9 13 0 0
BITMAP
1800
0C00
0000
1C00
1C00
3600
3600
3600
6300
7F00
7F00
E180
C180
ENDCHAR
STARTCHAR Aacute
ENCODING 193
SWIDTH 722 0
DWIDTH 9 0
BBX 9 13 0 0
BITMAP
0600
0C00
0000
1C00
1C00
3600
3600
3600
6300
7F00
7F00
E180
C180
ENDCHAR
STARTCHAR Acircumflex
ENCODING 194
SWIDTH 722 0
DWIDTH 9 0
BBX 9 13 0 0
BITMAP
1C00
3600
0000
1C00
1C00
3600
3600
3600
6300
7F00
7F00
E180
C180
ENDCHAR
STARTCHAR Atilde
ENCODING 195
SWIDTH 722 0
DWIDTH 9 0
BBX 9 13 0 0
BITMAP
3A00
2E00
0000
1C00
1C00
3600
3600
3600
6300
7F00
7F00
E180
C180
ENDCHAR
STARTCHAR Adieresis
ENCODING 196
SWIDTH 722 0
DWIDTH 9 0
BBX 9 13 0 0
BITMAP
3600
3600
0000
1C00
1C00
3600
3600
3600
6300
7F00
7F00
E180
C180
ENDCHAR
STARTCHAR Aring
ENCODING 197
SWIDTH 722 0
DWIDTH 9 0
BBX 9 12 0 0
BITMAP
1C00
1400
1C00
1C00
3600
3600
3600
6300
7F00
7F00
E180
C180
ENDCHAR
STARTCHAR AE
ENCODING 198
SWIDTH 1000 0
DWIDTH 15 0
BBX 14 10 0 0
BITMAP
03FC
07FC
0D80
0D80
19F8
19F8
3F80
7F80
61FC
C1FC
ENDCHAR
STARTCHAR Ccedilla
ENCODING 199
SWIDTH 722 0
DWIDTH 10 0
BBX 8 13 1 -3
BITMAP
3C
7F
E3
C0
C0
C0
C0
E3
7E
3C
1C
04
1C
ENDCHAR
STARTCHAR Egrave
ENCODING 200
SWIDTH 666 0
DWIDTH 9 0
BBX 7 13 1 0
BITMAP
30
18
00
FE
FE
C0
C0
FC
FC
C0
C0
FE
FE
ENDCHAR
STARTCHAR Eacute
ENCODING 201
SWIDTH 666 0
DWIDTH 9 0
BBX 7 13 1 0
BITMAP
0C
18
00
FE
FE
C0
C0
FC
FC
C0
C0
FE
FE
ENDCHAR
STARTCHAR Ecircumflex
ENCODING 202
SWIDTH 666 0
DWIDTH 9 0
BBX 7 13 1 0
BITMAP
38
6C
00
FE
FE
C0
C0
FC
FC
C0
C0
FE
FE
ENDCHAR
STARTCHAR Edieresis
ENCODING 203
SWIDTH 666 0
DWIDTH 9 0
BBX 7 13 1 0
BITMAP
6C
6C
00
FE
FE
C0
C0
FC
FC
C0
C0
FE
FE
ENDCHAR
STARTCHAR Igrave
ENCODING 204
SWIDTH 277 0
DWIDTH 4 0
BBX 3 13 0 0
BITMAP
C0
60
00
60
60
60
60
60
60
60
60
60
60
ENDCHAR
STARTCHAR Iacute
ENCODING 205
SWIDTH 277 0
DWIDTH 4 0
BBX 3 13 1 0
BITMAP
60
C0
00
C0
C0
C0
C0
C0
C0
C0
C0
C0
C0
ENDCHAR
STARTCHAR Icircumflex
ENCODING 206
SWIDTH 277 0
DWIDTH 4 0
BBX 5 13 0 0
BITMAP
70
D8
00
60
60
60
60
60
60
60
60
60
60
ENDCHAR
STARTCHAR Idieresis
ENCODING 207
SWIDTH 277 0
DWIDTH 4 0
BBX 5 13 0 0
BITMAP
D8
D8
00
60
60
60
60
60
60
60
60
60
60
ENDCHAR
STARTCHAR Eth
ENCODING 208
SWIDTH 722 0
DWIDTH 10 0
BBX 9 10 0 0
BITMAP
7E00
7F00
6380
6180
F980
F980
6180
6380
7F00
7E00
ENDCHAR
STARTCHAR Ntilde
ENCODING 209
SWIDTH 722 0
DWIDTH 10 0
BBX 8 13 1 0
BITMAP
3A
2E
00
C3
E3
E3
D3
D3
CB
CB
C7
C7
C3
ENDCHAR
STARTCHAR Ograve
ENCODING 210
SWIDTH 777 0
DWIDTH 11 0
BBX 9 13 1 0
BITMAP
1800
0C00
0000
3E00
7F00
E380
C180
C180
C180
C180
E380
7F00
3E00
ENDCHAR
STARTCHAR Oacute
ENCODING 211
SWIDTH 777 0
DWIDTH 11 0
BBX 9 13 1 0
BITMAP
0600
0C00
0000
3E00
7F00
E380
C180
C180
C180
C180
E380
7F00
3E00
ENDCHAR
STARTCHAR Ocircumflex
ENCODING 212
SWIDTH 777 0
DWIDTH 11 0
BBX 9 13 1 0
BITMAP
1C00
3600
0000
3E00
7F00
E380
C180
C180
C180
C180
E380
7F00
3E00
ENDCHAR
STARTCHAR Otilde
ENCODING 213
SWIDTH 777 0
DWIDTH 11 0
BBX 9 13 1 0
BITMAP
3A00
2E00
0000
3E00
7F00
E380
C180
C180
C180
C180
E380
7F00
3E00
ENDCHAR
STARTCHAR Odieresis
ENCODING 214
SWIDTH 777 0
DWIDTH 11 0
BBX 9 13 1 0
BITMAP
3600
3600
0000
3E00
7F00
E380
C180
C180
C180
C180
E380
7F00
3E00
ENDCHAR
STARTCHAR multiply
ENCODING 215
SWIDTH 583 0
DWIDTH 8 0
BBX 7 7 0 2
BITMAP
44
EE
7C
38
7C
EE
44
ENDCHAR
STARTCHAR Oslash
ENCODING 216
SWIDTH 777 0
DWIDTH 11 0
BBX 9 10 1 0
BITMAP
3F00
7F00
E380
C580
C980
C980
D180
E380
7F00
7E00
ENDCHAR
STARTCHAR Ugrave
ENCODING 217
SWIDTH 722 0
DWIDTH 10 0
BBX 8 13 1 0
BITMAP
30
18
00
C3
C3
C3
C3
C3
C3
C3
E7
7E
3C
ENDCHAR
STARTCHAR Uacute
ENCODING 218
SWIDTH 722 0
DWIDTH 10 0
BBX 8 13 1 0
BITMAP
0C
18
00
C3
C3
C3
C3
C3
C3
C3
E7
7E
3C
ENDCHAR
STARTCHAR Ucircumflex
ENCODING 219
SWIDTH 722 0
DWIDTH 10 0
BBX 8 13 1 0
BITMAP
1C
36
00
C3
C3
C3
C3
C3
C3
C3
E7
7E
3C
ENDCHAR
STARTCHAR Udieresis
ENCODING 220
SWIDTH 722 0
DWIDTH 10 0
BBX 8 13 1 0
BITMAP
36
36
00
C3
C3
C3
C3
C3
C3
C3
E7
7E
3C
ENDCHAR
STARTCHAR Yacute
ENCODING 221
SWIDTH 666 0
DWIDTH 10 0
BBX 8 13 1 0
BITMAP
0C
18
00
C3
66
66
3C
3C
18
18
18
18
18
ENDCHAR
STARTCHAR Thorn
ENCODING 222
SWIDTH 666 0
DWIDTH 9 0
BBX 7 10 1 0
BITMAP
C0
FC
FE
C6
C6
C6
FE
FC
C0
C0
ENDCHAR
STARTCHAR germandbls
ENCODING 223
SWIDTH 610 0
DWIDTH 8 0
BBX 6 11 1 0
BITMAP
78
FC
CC
CC
D8
D8
DC
CC
CC
DC
D8
ENDCHAR
STARTCHAR agrave
ENCODING 224
SWIDTH 556 0
DWIDTH 8 0
BBX 7 12 1 0
BITMAP
60
30
10
00
78
FC
0C
7C
FC
CC
FE
66
ENDCHAR
STARTCHAR aacute
ENCODING 225
SWIDTH 556 0
DWIDTH 8 0
BBX 7 12 1 0
BITMAP
18
30
20
00
78
FC
0C
7C
FC
CC
FE
66
ENDCHAR
STARTCHAR acircumflex
ENCODING 226
SWIDTH 556 0
DWIDTH 8 0
BBX 7 12 1 0
BITMAP
38
28
44
00
78
FC
0C
7C
FC
CC
FE
66
ENDCHAR
STARTCHAR atilde
ENCODING 227
SWIDTH 556 0
DWIDTH 8 0
BBX 7 11 1 0
BITMAP
74
5C
00
78
FC
0C
7C
FC
CC
FE
66
ENDCHAR
STARTCHAR adieresis
ENCODING 228
SWIDTH 556 0
DWIDTH 8 0
BBX 7 11 1 0
BITMAP
6C
6C
00
78
FC
0C
7C
FC
CC
FE
66
ENDCHAR
STARTCHAR aring
ENCODING 229
SWIDTH 556 0
DWIDTH 8 0
BBX 7 12 1 0
BITMAP
38
28
38
00
78
FC
0C
7C
FC
CC
FE
66
ENDCHAR
STARTCHAR ae
ENCODING 230
SWIDTH 889 0
DWIDTH 13 0
BBX 11 8 1 0
BITMAP
7B80
FFC0
0C60
7FE0
FFE0
CC00
F7E0
73C0
ENDCHAR
STARTCHAR ccedilla
ENCODING 231
SWIDTH 556 0
DWIDTH 8 0
BBX 6 11 1 -3
BITMAP
78
7C
CC
C0
C0
CC
7C
78
38
08
38
ENDCHAR
STARTCHAR egrave
ENCODING 232
SWIDTH 556 0
DWIDTH 9 0
BBX 7 12 1 0
BITMAP
30
18
08
00
38
7C
C6
FE
FE
C0
7E
3C
ENDCHAR
STARTCHAR eacute
ENCODING 233
SWIDTH 556 0
DWIDTH 9 0
BBX 7 12 1 0
BITMAP
0C
18
10
00
38
7C
C6
FE
FE
C0
7E
3C
ENDCHAR
STARTCHAR ecircumflex
ENCODING 234
SWIDTH 556 0
DWIDTH 9 0
BBX 7 12 1 0
BITMAP
38
28
44
00
38
7C
C6
FE
FE
C0
7E
3C
ENDCHAR
STARTCHAR edieresis
ENCODING 235
SWIDTH 556 0
DWIDTH 9 0
BBX 7 11 1 0
BITMAP
6C
6C
00
38
7C
C6
FE
FE
C0
7E
3C
ENDCHAR
STARTCHAR igrave
ENCODING 236
SWIDTH 277 0
DWIDTH 4 0
BBX 3 12 0 0
BITMAP
C0
60
20
00
60
60
60
60
60
60
60
60
ENDCHAR
STARTCHAR iacute
ENCODING 237
SWIDTH 277 0
DWIDTH 4 0
BBX 3 12 1 0
BITMAP
60
C0
80
00
C0
C0
C0
C0
C0
C0
C0
C0
ENDCHAR
STARTCHAR icircumflex
ENCODING 238
SWIDTH 277 0
DWIDTH 4 0
BBX 5 12 0 0
BITMAP
70
50
88
00
60
60
60
60
60
60
60
60
ENDCHAR
STARTCHAR idieresis
ENCODING 239
SWIDTH 277 0
DWIDTH 4 0
BBX 5 11 0 0
BITMAP
D8
D8
00
60
60
60
60
60
60
60
60
ENDCHAR
STARTCHAR eth
ENCODING 240
SWIDTH 610 0
DWIDTH 9 0
BBX 7 11 1 0
BITMAP
64
38
5C
0C
7E
FE
C6
C6
C6
FC
78
ENDCHAR
STARTCHAR ntilde
ENCODING 241
SWIDTH 610 0
DWIDTH 9 0
BBX 7 11 1 0
BITMAP
74
5C
00
DC
FE
E6
C6
C6
C6
C6
C6
ENDCHAR
STARTCHAR ograve
ENCODING 242
SWIDTH 610 0
DWIDTH 9 0
BBX 7 12 1 0
BITMAP
30
18
08
00
38
7C
C6
C6
C6
C6
7C
38
ENDCHAR
STARTCHAR oacute
ENCODING 243
SWIDTH 610 0
DWIDTH 9 0
BBX 7 12 1 0
BITMAP
0C
18
10
00
38
7C
C6
C6
C6
C6
7C
38
ENDCHAR
STARTCHAR ocircumflex
ENCODING 244
SWIDTH 610 0
DWIDTH 9 0
BBX 7 12 1 0
BITMAP
38
28
44
00
38
7C
C6
C6
C6
C6
7C
38
ENDCHAR
STARTCHAR otilde
ENCODING 245
SWIDTH 610 0
DWIDTH 9 0
BBX 7 11 1 0
BITMAP
74
5C
00
38
7C
C6
C6
C6
C6
7C
38
ENDCHAR
STARTCHAR odieresis
ENCODING 246
SWIDTH 610 0
DWIDTH 9 0
BBX 7 11 1 0
BITMAP
6C
6C
00
38
7C
C6
C6
C6
C6
7C
38
ENDCHAR
STARTCHAR divide
ENCODING 247
SWIDTH 548 0
DWIDTH 8 0
BBX 8 8 0 1
BITMAP
18
18
00
FF
FF
00
18
18
ENDCHAR
STARTCHAR oslash
ENCODING 248
SWIDTH 610 0
DWIDTH 9 0
BBX 7 8 1 0
BITMAP
3E
7C
CE
DE
F6
E6
7C
B8
ENDCHAR
STARTCHAR ugrave
ENCODING 249
SWIDTH 610 0
DWIDTH 9 0
BBX 7 12 1 0
BITMAP
C0
60
20
00
C6
C6
C6
C6
C6
CE
FE
76
ENDCHAR
STARTCHAR uacute
ENCODING 250
SWIDTH 610 0
DWIDTH 9 0
BBX 7 12 1 0
BITMAP
0C
18
10
00
C6
C6
C6
C6
C6
CE
FE
76
ENDCHAR
STARTCHAR ucircumflex
ENCODING 251
SWIDTH 610 0
DWIDTH 9 0
BBX 7 12 1 0
BITMAP
38
28
44
00
C6
C6
C6
C6
C6
CE
FE
76
ENDCHAR
STARTCHAR udieresis
ENCODING 252
SWIDTH 610 0
DWIDTH 9 0
BBX 7 11 1 0
BITMAP
6C
6C
00
C6
C6
C6
C6
C6
CE
FE
76
ENDCHAR
STARTCHAR yacute
ENCODING 253
SWIDTH 556 0
DWIDTH 7 0
BBX 7 15 0 -3
BITMAP
0C
18
10
00
C6
C6
64
6C
6C
28
38
38
30
F0
E0
ENDCHAR
STARTCHAR thorn
ENCODING 254
SWIDTH 610 0
DWIDTH 9 0
BBX 7 14 1 -3
BITMAP
C0
C0
C0
DC
FE
C6
C6
C6
C6
FE
DC
C0
C0
C0
ENDCHAR
STARTCHAR ydieresis
ENCODING 255
SWIDTH 556 0
DWIDTH 7 0
BBX 7 14 0 -3
BITMAP
6C
6C
00
C6
C6
64
6C
6C
28
38
38
30
F0
E0
ENDCHAR
STARTCHAR Amacron
ENCODING 256
SWIDTH 722 0
DWIDTH 9 0
BBX 9 12 0 0
BITMAP
3E00
0000
1C00
1C00
3600
3600
3600
6300
7F00
7F00
E180
C180
ENDCHAR
STARTCHAR amacron
ENCODING 257
SWIDTH 556 0
DWIDTH 8 0
BBX 7 10 1 0
BITMAP
7C
00
78
FC
0C
7C
FC
CC
FE
66
ENDCHAR
STARTCHAR Abreve
ENCODING 258
SWIDTH 722 0
DWIDTH 9 0
BBX 9 13 0 0
BITMAP
2200
1C00
0000
1C00
1C00
3600
3600
3600
6300
7F00
7F00
E180
C180
ENDCHAR
STARTCHAR abreve
ENCODING 259
SWIDTH 556 0
DWIDTH 8 0
BBX 7 12 1 0
BITMAP
24
24
18
00
78
FC
0C
7C
FC
CC
FE
66
ENDCHAR
STARTCHAR Aogonek
ENCODING 260
SWIDTH 722 0
DWIDTH 9 0
BBX 9 13 0 -3
BITMAP
1C00
1C00
3600
3600
3600
6300
7F00
7F00
E180
C180
0200
0200
0380
ENDCHAR
STARTCHAR aogonek
ENCODING 261
SWIDTH 556 0
DWIDTH 8 0
BBX 7 11 1 -3
BITMAP
78
FC
0C
7C
FC
CC
FE
66
08
08
0E
ENDCHAR
STARTCHAR Cacute
ENCODING 262
SWIDTH 722 0
DWIDTH 10 0
BBX 8 13 1 0
BITMAP
06
0C
00
3C
7F
E3
C0
C0
C0
C0
E3
7E
3C
ENDCHAR
STARTCHAR cacute
ENCODING 263
SWIDTH 556 0
DWIDTH 8 0
BBX 6 12 1 0
BITMAP
0C
18
10
00
78
7C
CC
C0
C0
CC
7C
78
ENDCHAR
STARTCHAR Ccircumflex
ENCODING 264
SWIDTH 722 0
DWIDTH 10 0
BBX 8 13 1 0
BITMAP
1C
36
00
3C
7F
E3
C0
C0
C0
C0
E3
7E
3C
ENDCHAR
STARTCHAR ccircumflex
ENCODING 265
SWIDTH 556 0
DWIDTH 8 0
BBX 6 12 1 0
BITMAP
38
28
44
00
78
7C
CC
C0
C0
CC
7C
78
ENDCHAR
STARTCHAR Cdotaccent
ENCODING 266
SWIDTH 722 0
DWIDTH 10 0
BBX 8 13 1 0
BITMAP
18
18
00
3C
7F
E3
C0
C0
C0
C0
E3
7E
3C
ENDCHAR
STARTCHAR cdotaccent
ENCODING 267
SWIDTH 556 0
DWIDTH 8 0
BBX 6 11 1 0
BITMAP
30
30
00
78
7C
CC
C0
C0
CC
7C
78
ENDCHAR
STARTCHAR Ccaron
ENCODING 268
SWIDTH 722 0
DWIDTH 10 0
BBX 8 13 1 0
BITMAP
36
1C
00
3C
7F
E3
C0
C0
C0
C0
E3
7E
3C
ENDCHAR
STARTCHAR ccaron
ENCODING 269
SWIDTH 556 0
DWIDTH 8 0
BBX 6 12 1 0
BITMAP
44
28
38
00
78
7C
CC
C0
C0
CC
7C
78
ENDCHAR
STARTCHAR Dcaron
ENCODING 270
SWIDTH 722 0
DWIDTH 10 0
BBX 8 13 1 0
BITMAP
6C
38
00
FC
FE
C7
C3
C3
C3
C3
C7
FE
FC
ENDCHAR
STARTCHAR dcaron
ENCODING 271
SWIDTH 718 0
DWIDTH 10 0
BBX 10 11 1 0
BITMAP
06C0
0640
06C0
7600
FE00
C600
C600
C600
C600
FE00
7600
ENDCHAR
STARTCHAR Dcroat
ENCODING 272
SWIDTH 722 0
DWIDTH 10 0
BBX 9 10 0 0
BITMAP
7E00
7F00
6380
6180
F980
F980
6180
6380
7F00
7E00
ENDCHAR
STARTCHAR dcroat
ENCODING 273
SWIDTH 610 0
DWIDTH 9 0
BBX 8 11 1 0
BITMAP
06
1F
1F
06
76
FE
C6
C6
C6
FE
76
ENDCHAR
STARTCHAR Emacron
ENCODING 274
SWIDTH 666 0
DWIDTH 9 0
BBX 7 12 1 0
BITMAP
7C
00
FE
FE
C0
C0
FC
FC
C0
C0
FE
FE
ENDCHAR
STARTCHAR emacron
ENCODING 275
SWIDTH 556 0
DWIDTH 9 0
BBX 7 10 1 0
BITMAP
7C
00
38
7C
C6
FE
FE
C0
7E
3C
ENDCHAR
STARTCHAR Ebreve
ENCODING 276
SWIDTH 666 0
DWIDTH 9 0
BBX 7 13 1 0
BITMAP
44
38
00
FE
FE
C0
C0
FC
FC
C0
C0
FE
FE
ENDCHAR
STARTCHAR ebreve
ENCODING 277
SWIDTH 556 0
DWIDTH 9 0
BBX 7 12 1 0
BITMAP
24
24
18
00
38
7C
C6
FE
FE
C0
7E
3C
ENDCHAR
STARTCHAR Edotaccent
ENCODING 278
SWIDTH 666 0
DWIDTH 9 0
BBX 7 13 1 0
BITMAP
18
18
00
FE
FE
C0
C0
FC
FC
C0
C0
FE
FE
ENDCHAR
STARTCHAR edotaccent
ENCODING 279
SWIDTH 556 0
DWIDTH 9 0
BBX 7 11 1 0
BITMAP
18
18
00
38
7C
C6
FE
FE
C0
7E
3C
ENDCHAR
STARTCHAR Eogonek
ENCODING 280
SWIDTH 666 0
DWIDTH 9 0
BBX 7 13 1 -3
BITMAP
FE
FE
C0
C0
FC
FC
C0
C0
FE
FE
08
08
0E
ENDCHAR
STARTCHAR eogonek
ENCODING 281
SWIDTH 556 0
DWIDTH 9 0
BBX 7 11 1 -3
BITMAP
38
7C
C6
FE
FE
C0
7E
3C
08
08
0E
ENDCHAR
STARTCHAR Ecaron
ENCODING 282
SWIDTH 666 0
DWIDTH 9 0
BBX 7 13 1 0
BITMAP
6C
38
00
FE
FE
C0
C0
FC
FC
C0
C0
FE
FE
ENDCHAR
STARTCHAR ecaron
ENCODING 283
SWIDTH 556 0
DWIDTH 9 0
BBX 7 12 1 0
BITMAP
44
28
38
00
38
7C
C6
FE
FE
C0
7E
3C
ENDCHAR
STARTCHAR Gcircumflex
ENCODING 284
SWIDTH 777 0
DWIDTH 11 0
BBX 9 13 1 0
BITMAP
1C00
3600
0000
3E00
7F00
E180
C000
C000
C780
C780
E180
7F80
3E00
ENDCHAR
STARTCHAR gcircumflex
ENCODING 285
SWIDTH 610 0
DWIDTH 9 0
BBX 7 15 1 -3
BITMAP
38
28
44
00
76
FE
C6
C6
C6
C6
FE
76
06
FE
7C
ENDCHAR
STARTCHAR Gbreve
ENCODING 286
SWIDTH 777 0
DWIDTH 11 0
BBX 9 13 1 0
BITMAP
2200
1C00
0000
3E00
7F00
E180
C000
C000
C780
C780
E180
7F80
3E00
ENDCHAR
STARTCHAR gbreve
ENCODING 287
SWIDTH 610 0
DWIDTH 9 0
BBX 7 15 1 -3
BITMAP
24
24
18
00
76
FE
C6
C6
C6
C6
FE
76
06
FE
7C
ENDCHAR
STARTCHAR Gdotaccent
ENCODING 288
SWIDTH 777 0
DWIDTH 11 0
BBX 9 13 1 0
BITMAP
0C00
0C00
0000
3E00
7F00
E180
C000
C000
C780
C780
E180
7F80
3E00
ENDCHAR
STARTCHAR gdotaccent
ENCODING 289
SWIDTH 610 0
DWIDTH 9 0
BBX 7 14 1 -3
BITMAP
18
18
00
76
FE
C6
C6
C6
C6
FE
76
06
FE
7C
ENDCHAR
STARTCHAR Gcommaaccent
ENCODING 290
SWIDTH 777 0
DWIDTH 11 0
BBX 9 14 1 -4
BITMAP
3E00
7F00
E180
C000
C000
C780
C780
E180
7F80
3E00
0000
0C00
0C00
0400
ENDCHAR
STARTCHAR gcommaaccent
ENCODING 291
SWIDTH 610 0
DWIDTH 9 0
BBX 7 15 1 -3
BITMAP
10
18
18
00
76
FE
C6
C6
C6
C6
FE
76
06
FE
7C
ENDCHAR
STARTCHAR Hcircumflex
ENCODING 292
SWIDTH 722 0
DWIDTH 10 0
BBX 8 13 1 0
BITMAP
1C
36
00
C3
C3
C3
C3
FF
FF
C3
C3
C3
C3
ENDCHAR
STARTCHAR hcircumflex
ENCODING 293
SWIDTH 610 0
DWIDTH 9 0
BBX 7 14 1 0
BITMAP
38
6C
00
C0
C0
C0
DC
FE
E6
C6
C6
C6
C6
C6
ENDCHAR
STARTCHAR Hbar
ENCODING 294
SWIDTH 722 0
DWIDTH 10 0
BBX 10 10 0 0
BITMAP
6180
FFC0
FFC0
6180
7F80
7F80
6180
6180
6180
6180
ENDCHAR
STARTCHAR hbar
ENCODING 295
SWIDTH 610 0
DWIDTH 9 0
BBX 8 11 0 0
BITMAP
60
F8
60
6E
7F
73
63
63
63
63
63
ENDCHAR
STARTCHAR Itilde
ENCODING 296
SWIDTH 277 0
DWIDTH 4 0
BBX 5 13 0 0
BITMAP
E8
B8
00
60
60
60
60
60
60
60
60
60
60
ENDCHAR
STARTCHAR itilde
ENCODING 297
SWIDTH 277 0
DWIDTH 4 0
BBX 5 11 0 0
BITMAP
E8
B8
00
60
60
60
60
60
60
60
60
ENDCHAR
STARTCHAR Imacron
ENCODING 298
SWIDTH 277 0
DWIDTH 4 0
BBX 5 12 0 0
BITMAP
F8
00
60
60
60
60
60
60
60
60
60
60
ENDCHAR
STARTCHAR imacron
ENCODING 299
SWIDTH 277 0
DWIDTH 4 0
BBX 5 10 0 0
BITMAP
F8
00
60
60
60
60
60
60
60
60
ENDCHAR
STARTCHAR Ibreve
ENCODING 300
SWIDTH 277 0
DWIDTH 4 0
BBX 5 13 0 0
BITMAP
88
70
00
60
60
60
60
60
60
60
60
60
60
ENDCHAR
STARTCHAR ibreve
ENCODING 301
SWIDTH 277 0
DWIDTH 4 0
BBX 4 12 0 0
BITMAP
90
90
60
00
60
60
60
60
60
60
60
60
ENDCHAR
STARTCHAR Iogonek
ENCODING 302
SWIDTH 277 0
DWIDTH 4 0
BBX 3 13 1 -3
BITMAP
C0
C0
C0
C0
C0
C0
C0
C0
C0
C0
80
80
E0
ENDCHAR
STARTCHAR iogonek
ENCODING 303
SWIDTH 277 0
DWIDTH 4 0
BBX 3 14 1 -3
BITMAP
C0
C0
00
C0
C0
C0
C0
C0
C0
C0
C0
80
80
E0
ENDCHAR
STARTCHAR Idotaccent
ENCODING 304
SWIDTH 277 0
DWIDTH 4 0
BBX 2 13 1 0
BITMAP
C0
C0
00
C0
C0
C0
C0
C0
C0
C0
C0
C0
C0
ENDCHAR
STARTCHAR dotlessi
ENCODING 305
SWIDTH 277 0
DWIDTH 4 0
BBX 2 8 1 0
BITMAP
C0
C0
C0
C0
C0
C0
C0
C0
ENDCHAR
STARTCHAR IJ
ENCODING 306
SWIDTH 784 0
DWIDTH 11 0
BBX 9 10 1 0
BITMAP
C780
C780
C180
C180
C180
C180
C180
F180
FF80
DF00
ENDCHAR
STARTCHAR ij
ENCODING 307
SWIDTH 556 0
DWIDTH 8 0
BBX 6 14 1 -3
BITMAP
CC
CC
00
CC
CC
CC
CC
CC
CC
CC
CC
0C
1C
18
ENDCHAR
STARTCHAR Jcircumflex
ENCODING 308
SWIDTH 556 0
DWIDTH 8 0
BBX 7 13 0 0
BITMAP
1C
36
00
1E
1E
06
06
06
06
06
C6
FE
7C
ENDCHAR
STARTCHAR jcircumflex
ENCODING 309
SWIDTH 277 0
DWIDTH 4 0
BBX 5 15 -1 -3
BITMAP
70
50
88
00
30
30
30
30
30
30
30
30
30
70
60
ENDCHAR
STARTCHAR Kcommaaccent
ENCODING 310
SWIDTH 722 0
DWIDTH 10 0
BBX 9 14 1 -4
BITMAP
C380
C700
CE00
D800
F800
EC00
CC00
C600
C300
C180
0000
0C00
0C00
0400
ENDCHAR
STARTCHAR kcommaaccent
ENCODING 311
SWIDTH 556 0
DWIDTH 8 0
BBX 7 15 1 -4
BITMAP
C0
C0
C0
CE
DC
F8
F0
D8
CC
CC
C6
00
18
18
08
ENDCHAR
STARTCHAR kgreenlandic
ENCODING 312
SWIDTH 556 0
DWIDTH 8 0
BBX 7 8 1 0
BITMAP
C6
CC
D8
F0
F8
CC
CC
C6
ENDCHAR
STARTCHAR Lacute
ENCODING 313
SWIDTH 610 0
DWIDTH 8 0
BBX 6 13 1 0
BITMAP
30
60
00
C0
C0
C0
C0
C0
C0
C0
C0
FC
FC
ENDCHAR
STARTCHAR lacute
ENCODING 314
SWIDTH 277 0
DWIDTH 4 0
BBX 3 14 1 0
BITMAP
60
C0
00
C0
C0
C0
C0
C0
C0
C0
C0
C0
C0
C0
ENDCHAR
STARTCHAR Lcommaaccent
ENCODING 315
SWIDTH 610 0
DWIDTH 8 0
BBX 6 14 1 -4
BITMAP
C0
C0
C0
C0
C0
C0
C0
C0
FC
FC
00
30
30
10
ENDCHAR
STARTCHAR lcommaaccent
ENCODING 316
SWIDTH 277 0
DWIDTH 4 0
BBX 2 15 1 -4
BITMAP
C0
C0
C0
C0
C0
C0
C0
C0
C0
C0
C0
00
C0
C0
40
ENDCHAR
STARTCHAR Lcaron
ENCODING 317
SWIDTH 610 0
DWIDTH 9 0
BBX 6 10 1 0
BITMAP
CC
C4
CC
C0
C0
C0
C0
C0
FC
FC
ENDCHAR
STARTCHAR lcaron
ENCODING 318
SWIDTH 385 0
DWIDTH 5 0
BBX 5 11 1 0
BITMAP
D8
C8
D8
C0
C0
C0
C0
C0
C0
C0
C0
ENDCHAR
STARTCHAR Ldot
ENCODING 319
SWIDTH 610 0
DWIDTH 8 0
BBX 6 10 1 0
BITMAP
C0
C0
C0
D8
D8
C0
C0
C0
FC
FC
ENDCHAR
STARTCHAR ldot
ENCODING 320
SWIDTH 479 0
DWIDTH 7 0
BBX 5 11 1 0
BITMAP
C0
C0
C0
C0
D8
D8
C0
C0
C0
C0
C0
ENDCHAR
STARTCHAR Lslash
ENCODING 321
SWIDTH 610 0
DWIDTH 9 0
BBX 8 10 0 0
BITMAP
60
60
60
68
78
E0
E0
60
7F
7F
ENDCHAR
STARTCHAR lslash
ENCODING 322
SWIDTH 277 0
DWIDTH 4 0
BBX 4 11 0 0
BITMAP
60
60
60
60
70
F0
E0
60
60
60
60
ENDCHAR
STARTCHAR Nacute
ENCODING 323
SWIDTH 722 0
DWIDTH 10 0
BBX 8 13 1 0
BITMAP
0C
18
00
C3
E3
E3
D3
D3
CB
CB
C7
C7
C3
ENDCHAR
STARTCHAR nacute
ENCODING 324
SWIDTH 610 0
DWIDTH 9 0
BBX 7 12 1 0
BITMAP
0C
18
10
00
DC
FE
E6
C6
C6
C6
C6
C6
ENDCHAR
STARTCHAR Ncommaaccent
ENCODING 325
SWIDTH 722 0
DWIDTH 10 0
BBX 8 14 1 -4
BITMAP
C3
E3
E3
D3
D3
CB
CB
C7
C7
C3
00
18
18
08
ENDCHAR
STARTCHAR ncommaaccent
ENCODING 326
SWIDTH 610 0
DWIDTH 9 0
BBX 7 12 1 -4
BITMAP
DC
FE
E6
C6
C6
C6
C6
C6
00
18
18
08
ENDCHAR
STARTCHAR Ncaron
ENCODING 327
SWIDTH 722 0
DWIDTH 10 0
BBX 8 13 1 0
BITMAP
36
1C
00
C3
E3
E3
D3
D3
CB
CB
C7
C7
C3
ENDCHAR
STARTCHAR ncaron
ENCODING 328
SWIDTH 610 0
DWIDTH 9 0
BBX 7 12 1 0
BITMAP
44
28
38
00
DC
FE
E6
C6
C6
C6
C6
C6
ENDCHAR
STARTCHAR napostrophe
ENCODING 329
SWIDTH 708 0
DWIDTH 10 0
BBX 9 10 0 0
BITMAP
C000
C000
7700
FF80
3980
3180
3180
3180
3180
3180
ENDCHAR
STARTCHAR Eng
ENCODING 330
SWIDTH 723 0
DWIDTH 10 0
BBX 8 10 1 0
BITMAP
DE
FF
E3
C3
C3
C3
C3
C3
CF
DE
ENDCHAR
STARTCHAR eng
ENCODING 331
SWIDTH 610 0
DWIDTH 9 0
BBX 7 11 1 -3
BITMAP
DC
FE
E6
C6
C6
C6
C6
C6
06
0E
0C
ENDCHAR
STARTCHAR Omacron
ENCODING 332
SWIDTH 777 0
DWIDTH 11 0
BBX 9 12 1 0
BITMAP
3E00
0000
3E00
7F00
E380
C180
C180
C180
C180
E380
7F00
3E00
ENDCHAR
STARTCHAR omacron
ENCODING 333
SWIDTH 610 0
DWIDTH 9 0
BBX 7 10 1 0
BITMAP
7C
00
38
7C
C6
C6
C6
C6
7C
38
ENDCHAR
STARTCHAR Obreve
ENCODING 334
SWIDTH 777 0
DWIDTH 11 0
BBX 9 13 1 0
BITMAP
2200
1C00
0000
3E00
7F00
E380
C180
C180
C180
C180
E380
7F00
3E00
ENDCHAR
STARTCHAR obreve
ENCODING 335
SWIDTH 610 0
DWIDTH 9 0
BBX 7 12 1 0
BITMAP
24
24
18
00
38
7C
C6
C6
C6
C6
7C
38
ENDCHAR
STARTCHAR Ohungarumlaut
ENCODING 336
SWIDTH 777 0
DWIDTH 11 0
BBX 9 13 1 0
BITMAP
0D80
1200
0000
3E00
7F00
E380
C180
C180
C180
C180
E380
7F00
3E00
ENDCHAR
STARTCHAR ohungarumlaut
ENCODING 337
SWIDTH 610 0
DWIDTH 9 0
BBX 7 12 1 0
BITMAP
36
6C
48
00
38
7C
C6
C6
C6
C6
7C
38
ENDCHAR
STARTCHAR OE
ENCODING 338
SWIDTH 1000 0
DWIDTH 15 0
BBX 13 10 1 0
BITMAP
3FF8
7FF8
E300
C300
C3F0
C3F0
C300
E300
7FF8
3FF8
ENDCHAR
STARTCHAR oe
ENCODING 339
SWIDTH 943 0
DWIDTH 13 0
BBX 11 8 1 0
BITMAP
39C0
7FC0
C660
C7E0
C7E0
C600
7FE0
39C0
ENDCHAR
STARTCHAR Racute
ENCODING 340
SWIDTH 722 0
DWIDTH 10 0
BBX 8 13 1 0
BITMAP
0C
18
00
FE
FF
C3
C3
FE
FC
CE
C6
C7
C3
ENDCHAR
STARTCHAR racute
ENCODING 341
SWIDTH 389 0
DWIDTH 6 0
BBX 5 12 1 0
BITMAP
18
30
20
00
D8
F8
E0
C0
C0
C0
C0
C0
ENDCHAR
STARTCHAR Rcommaaccent
ENCODING 342
SWIDTH 722 0
DWIDTH 10 0
BBX 8 14 1 -4
BITMAP
FE
FF
C3
C3
FE
FC
CE
C6
C7
C3
00
18
18
08
ENDCHAR
STARTCHAR rcommaaccent
ENCODING 343
SWIDTH 389 0
DWIDTH 6 0
BBX 5 12 1 -4
BITMAP
D8
F8
E0
C0
C0
C0
C0
C0
00
60
60
20
ENDCHAR
STARTCHAR Rcaron
ENCODING 344
SWIDTH 722 0
DWIDTH 10 0
BBX 8 13 1 0
BITMAP
6C
38
00
FE
FF
C3
C3
FE
FC
CE
C6
C7
C3
ENDCHAR
STARTCHAR rcaron
ENCODING 345
SWIDTH 389 0
DWIDTH 6 0
BBX 5 12 1 0
BITMAP
88
50
70
00
D8
F8
E0
C0
C0
C0
C0
C0
ENDCHAR
STARTCHAR Sacute
ENCODING 346
SWIDTH 666 0
DWIDTH 9 0
BBX 7 13 1 0
BITMAP
0C
18
00
7C
FE
C6
C0
78
3E
06
C6
FE
7C
ENDCHAR
STARTCHAR sacute
ENCODING 347
SWIDTH 556 0
DWIDTH 8 0
BBX 6 12 1 0
BITMAP
18
30
20
00
78
FC
C0
F8
3C
0C
FC
78
ENDCHAR
STARTCHAR Scircumflex
ENCODING 348
SWIDTH 666 0
DWIDTH 9 0
BBX 7 13 1 0
BITMAP
38
6C
00
7C
FE
C6
C0
78
3E
06
C6
FE
7C
ENDCHAR
STARTCHAR scircumflex
ENCODING 349
SWIDTH 556 0
DWIDTH 8 0
BBX 6 12 1 0
BITMAP
38
28
44
00
78
FC
C0
F8
3C
0C
FC
78
ENDCHAR
STARTCHAR Scedilla
ENCODING 350
SWIDTH 666 0
DWIDTH 9 0
BBX 7 13 1 -3
BITMAP
7C
FE
C6
C0
78
3E
06
C6
FE
7C
1C
04
1C
ENDCHAR
STARTCHAR scedilla
ENCODING 351
SWIDTH 556 0
DWIDTH 8 0
BBX 6 11 1 -3
BITMAP
78
FC
C0
F8
3C
0C
FC
78
38
08
38
ENDCHAR
STARTCHAR Scaron
ENCODING 352
SWIDTH 666 0
DWIDTH 9 0
BBX 7 13 1 0
BITMAP
6C
38
00
7C
FE
C6
C0
78
3E
06
C6
FE
7C
ENDCHAR
STARTCHAR scaron
ENCODING 353
SWIDTH 556 0
DWIDTH 8 0
BBX 6 12 1 0
BITMAP
44
28
38
00
78
FC
C0
F8
3C
0C
FC
78
ENDCHAR
STARTCHAR Tcommaaccent
ENCODING 354
SWIDTH 610 0
DWIDTH 8 0
BBX 6 13 2 -3
BITMAP
FC
FC
30
30
30
30
30
30
30
30
70
10
70
ENDCHAR
STARTCHAR tcommaaccent
ENCODING 355
SWIDTH 333 0
DWIDTH 5 0
BBX 5 13 -1 -3
BITMAP
20
60
F8
F8
60
60
60
60
78
78
38
08
38
ENDCHAR
STARTCHAR Tcaron
ENCODING 356
SWIDTH 610 0
DWIDTH 8 0
BBX 6 13 1 0
BITMAP
6C
38
00
FC
FC
30
30
30
30
30
30
30
30
ENDCHAR
STARTCHAR tcaron
ENCODING 357
SWIDTH 479 0
DWIDTH 7 0
BBX 8 11 0 0
BITMAP
03
21
63
F8
F8
60
60
60
60
78
78
ENDCHAR
STARTCHAR Tbar
ENCODING 358
SWIDTH 610 0
DWIDTH 8 0
BBX 6 10 1 0
BITMAP
FC
FC
30
30
78
78
30
30
30
30
ENDCHAR
STARTCHAR tbar
ENCODING 359
SWIDTH 333 0
DWIDTH 5 0
BBX 5 10 0 0
BITMAP
20
60
F8
F8
60
F8
F8
60
78
78
ENDCHAR
STARTCHAR Utilde
ENCODING 360
SWIDTH 722 0
DWIDTH 10 0
BBX 8 13 1 0
BITMAP
3A
2E
00
C3
C3
C3
C3
C3
C3
C3
E7
7E
3C
ENDCHAR
STARTCHAR utilde
ENCODING 361
SWIDTH 610 0
DWIDTH 9 0
BBX 7 11 1 0
BITMAP
74
5C
00
C6
C6
C6
C6
C6
CE
FE
76
ENDCHAR
STARTCHAR Umacron
ENCODING 362
SWIDTH 722 0
DWIDTH 10 0
BBX 8 12 1 0
BITMAP
3E
00
C3
C3
C3
C3
C3
C3
C3
E7
7E
3C
ENDCHAR
STARTCHAR umacron
ENCODING 363
SWIDTH 610 0
DWIDTH 9 0
BBX 7 10 1 0
BITMAP
7C
00
C6
C6
C6
C6
C6
CE
FE
76
ENDCHAR
STARTCHAR Ubreve
ENCODING 364
SWIDTH 722 0
DWIDTH 10 0
BBX 8 13 1 0
BITMAP
22
1C
00
C3
C3
C3
C3
C3
C3
C3
E7
7E
3C
ENDCHAR
STARTCHAR ubreve
ENCODING 365
SWIDTH 610 0
DWIDTH 9 0
BBX 7 12 1 0
BITMAP
48
48
30
00
C6
C6
C6
C6
C6
CE
FE
76
ENDCHAR
STARTCHAR Uring
ENCODING 366
SWIDTH 722 0
DWIDTH 10 0
BBX 8 14 1 0
BITMAP
1C
14
1C
00
C3
C3
C3
C3
C3
C3
C3
E7
7E
3C
ENDCHAR
STARTCHAR uring
ENCODING 367
SWIDTH 610 0
DWIDTH 9 0
BBX 7 11 1 0
BITMAP
38
28
38
C6
C6
C6
C6
C6
CE
FE
76
ENDCHAR
STARTCHAR Uhungarumlaut
ENCODING 368
SWIDTH 722 0
DWIDTH 10 0
BBX 8 13 1 0
BITMAP
1B
24
00
C3
C3
C3
C3
C3
C3
C3
E7
7E
3C
ENDCHAR
STARTCHAR uhungarumlaut
ENCODING 369
SWIDTH 610 0
DWIDTH 9 0
BBX 7 12 1 0
BITMAP
6C
D8
90
00
C6
C6
C6
C6
C6
CE
FE
76
ENDCHAR
STARTCHAR Uogonek
ENCODING 370
SWIDTH 722 0
DWIDTH 10 0
BBX 8 13 1 -3
BITMAP
C3
C3
C3
C3
C3
C3
C3
E7
7E
3C
10
10
1C
ENDCHAR
STARTCHAR uogonek
ENCODING 371
SWIDTH 610 0
DWIDTH 9 0
BBX 7 11 1 -3
BITMAP
C6
C6
C6
C6
C6
CE
FE
76
08
08
0E
ENDCHAR
STARTCHAR Wcircumflex
ENCODING 372
SWIDTH 943 0
DWIDTH 13 0
BBX 13 13 0 0
BITMAP
0700
0D80
0000
C718
C718
C518
65B0
6DB0
6DB0
6CB0
38A0
38E0
38E0
ENDCHAR
STARTCHAR wcircumflex
ENCODING 373
SWIDTH 777 0
DWIDTH 11 0
BBX 11 12 0 0
BITMAP
0E00
0A00
1100
0000
CE60
CA60
CA60
4A40
7BC0
7BC0
7180
3180
ENDCHAR
STARTCHAR Ycircumflex
ENCODING 374
SWIDTH 666 0
DWIDTH 10 0
BBX 8 13 1 0
BITMAP
1C
36
00
C3
66
66
3C
3C
18
18
18
18
18
ENDCHAR
STARTCHAR ycircumflex
ENCODING 375
SWIDTH 556 0
DWIDTH 7 0
BBX 7 15 0 -3
BITMAP
38
28
44
00
C6
C6
64
6C
6C
28
38
38
30
F0
E0
ENDCHAR
STARTCHAR Ydieresis
ENCODING 376
SWIDTH 666 0
DWIDTH 10 0
BBX 8 13 1 0
BITMAP
36
36
00
C3
66
66
3C
3C
18
18
18
18
18
ENDCHAR
STARTCHAR Zacute
ENCODING 377
SWIDTH 610 0
DWIDTH 8 0
BBX 6 13 1 0
BITMAP
18
30
00
FC
FC
1C
18
30
30
60
E0
FC
FC
ENDCHAR
STARTCHAR zacute
ENCODING 378
SWIDTH 500 0
DWIDTH 7 0
BBX 5 12 1 0
BITMAP
18
30
20
00
F8
F8
18
30
60
C0
F8
F8
ENDCHAR
STARTCHAR Zdotaccent
ENCODING 379
SWIDTH 610 0
DWIDTH 8 0
BBX 6 13 1 0
BITMAP
30
30
00
FC
FC
1C
18
30
30
60
E0
FC
FC
ENDCHAR
STARTCHAR zdotaccent
ENCODING 380
SWIDTH 500 0
DWIDTH 7 0
BBX 5 11 1 0
BITMAP
30
30
00
F8
F8
18
30
60
C0
F8
F8
ENDCHAR
STARTCHAR Zcaron
ENCODING 381
SWIDTH 610 0
DWIDTH 8 0
BBX 6 13 1 0
BITMAP
6C
38
00
FC
FC
1C
18
30
30
60
E0
FC
FC
ENDCHAR
STARTCHAR zcaron
ENCODING 382
SWIDTH 500 0
DWIDTH 7 0
BBX 5 12 1 0
BITMAP
88
50
70
00
F8
F8
18
30
60
C0
F8
F8
ENDCHAR
STARTCHAR longs
ENCODING 383
SWIDTH 277 0
DWIDTH 4 0
BBX 3 11 1 0
BITMAP
60
E0
C0
C0
C0
C0
C0
C0
C0
C0
C0
ENDCHAR
STARTCHAR florin
ENCODING 402
SWIDTH 556 0
DWIDTH 8 0
BBX 6 13 1 -3
BITMAP
1C
1C
38
30
78
78
30
30
60
60
60
C0
C0
ENDCHAR
STARTCHAR Aringacute
ENCODING 506
SWIDTH 722 0
DWIDTH 9 0
BBX 9 14 0 0
BITMAP
0600
0C00
1C00
1400
1C00
1C00
3600
3600
3600
6300
7F00
7F00
E180
C180
ENDCHAR
STARTCHAR aringacute
ENCODING 507
SWIDTH 556 0
DWIDTH 8 0
BBX 7 14 1 0
BITMAP
0C
18
38
28
38
00
78
FC
0C
7C
FC
CC
FE
66
ENDCHAR
STARTCHAR AEacute
ENCODING 508
SWIDTH 1000 0
DWIDTH 15 0
BBX 14 13 0 0
BITMAP
0060
00C0
0000
03FC
07FC
0D80
0D80
19F8
19F8
3F80
7F80
61FC
C1FC
ENDCHAR
STARTCHAR aeacute
ENCODING 509
SWIDTH 889 0
DWIDTH 13 0
BBX 11 12 1 0
BITMAP
0300
0600
0400
0000
7B80
FFC0
0C60
7FE0
FFE0
CC00
F7E0
73C0
ENDCHAR
STARTCHAR Oslashacute
ENCODING 510
SWIDTH 777 0
DWIDTH 11 0
BBX 9 13 1 0
BITMAP
0600
0C00
0000
3F00
7F00
E380
C580
C980
C980
D180
E380
7F00
7E00
ENDCHAR
STARTCHAR oslashacute
ENCODING 511
SWIDTH 610 0
DWIDTH 9 0
BBX 7 12 1 0
BITMAP
0C
18
10
00
3E
7C
CE
DE
F6
E6
7C
B8
ENDCHAR
STARTCHAR Scommaaccent
ENCODING 536
SWIDTH 666 0
DWIDTH 9 0
BBX 7 14 1 -4
BITMAP
7C
FE
C6
C0
78
3E
06
C6
FE
7C
00
18
18
08
ENDCHAR
STARTCHAR scommaaccent
ENCODING 537
SWIDTH 556 0
DWIDTH 8 0
BBX 6 12 1 -4
BITMAP
78
FC
C0
F8
3C
0C
FC
78
00
30
30
10
ENDCHAR
STARTCHAR uni021A
ENCODING 538
SWIDTH 610 0
DWIDTH 8 0
BBX 6 14 1 -4
BITMAP
FC
FC
30
30
30
30
30
30
30
30
00
18
18
08
ENDCHAR
STARTCHAR uni021B
ENCODING 539
SWIDTH 333 0
DWIDTH 5 0
BBX 5 14 0 -4
BITMAP
20
60
F8
F8
60
60
60
60
78
78
00
30
30
10
ENDCHAR
STARTCHAR circumflex
ENCODING 710
SWIDTH 333 0
DWIDTH 5 0
BBX 5 3 0 9
BITMAP
70
50
88
ENDCHAR
STARTCHAR caron
ENCODING 711
SWIDTH 333 0
DWIDTH 5 0
BBX 5 3 0 9
BITMAP
88
50
70
ENDCHAR
STARTCHAR uni02C9
ENCODING 713
SWIDTH 333 0
DWIDTH 5 0
BBX 5 1 0 9
BITMAP
F8
ENDCHAR
STARTCHAR breve
ENCODING 728
SWIDTH 333 0
DWIDTH 4 0
BBX 4 3 0 9
BITMAP
90
90
60
ENDCHAR
STARTCHAR dotaccent
ENCODING 729
SWIDTH 333 0
DWIDTH 5 0
BBX 2 2 1 9
BITMAP
C0
C0
ENDCHAR
STARTCHAR ring
ENCODING 730
SWIDTH 333 0
DWIDTH 5 0
BBX 3 3 1 8
BITMAP
E0
A0
E0
ENDCHAR
STARTCHAR ogonek
ENCODING 731
SWIDTH 333 0
DWIDTH 5 0
BBX 3 3 1 -3
BITMAP
80
80
E0
ENDCHAR
STARTCHAR tilde
ENCODING 732
SWIDTH 333 0
DWIDTH 5 0
BBX 5 2 0 9
BITMAP
E8
B8
ENDCHAR
STARTCHAR hungarumlaut
ENCODING 733
SWIDTH 333 0
DWIDTH 5 0
BBX 6 3 -1 9
BITMAP
6C
D8
90
ENDCHAR
STARTCHAR semicolon.dup3
ENCODING 894
SWIDTH 333 0
DWIDTH 4 0
BBX 2 10 1 -2
BITMAP
C0
C0
00
00
00
00
C0
C0
40
C0
ENDCHAR
STARTCHAR tonos
ENCODING 900
SWIDTH 333 0
DWIDTH 5 0
BBX 2 3 1 9
BITMAP
C0
C0
80
ENDCHAR
STARTCHAR dieresistonos
ENCODING 901
SWIDTH 464 0
DWIDTH 7 0
BBX 5 3 0 9
BITMAP
30
B8
A8
ENDCHAR
STARTCHAR Alphatonos
ENCODING 902
SWIDTH 722 0
DWIDTH 9 0
BBX 9 10 0 0
BITMAP
DC00
DC00
B600
3600
3600
6300
7F00
7F00
E180
C180
ENDCHAR
STARTCHAR anoteleia
ENCODING 903
SWIDTH 333 0
DWIDTH 5 0
BBX 2 2 1 4
BITMAP
C0
C0
ENDCHAR
STARTCHAR Epsilontonos
ENCODING 904
SWIDTH 853 0
DWIDTH 12 0
BBX 10 10 1 0
BITMAP
DFC0
DFC0
9800
1800
1F80
1F80
1800
1800
1FC0
1FC0
ENDCHAR
STARTCHAR Etatonos
ENCODING 905
SWIDTH 905 0
DWIDTH 13 0
BBX 11 10 1 0
BITMAP
D860
D860
9860
1860
1FE0
1FE0
1860
1860
1860
1860
ENDCHAR
STARTCHAR Iotatonos
ENCODING 906
SWIDTH 473 0
DWIDTH 7 0
BBX 5 10 1 0
BITMAP
D8
D8
98
18
18
18
18
18
18
18
ENDCHAR
STARTCHAR Omicrontonos
ENCODING 908
SWIDTH 824 0
DWIDTH 12 0
BBX 11 10 0 0
BITMAP
CF80
DFC0
B8E0
3060
3060
3060
3060
38E0
1FC0
0F80
ENDCHAR
STARTCHAR Upsilontonos
ENCODING 910
SWIDTH 927 0
DWIDTH 13 0
BBX 11 10 1 0
BITMAP
D860
CCC0
8CC0
0780
0780
0300
0300
0300
0300
0300
ENDCHAR
STARTCHAR Omegatonos
ENCODING 911
SWIDTH 837 0
DWIDTH 12 0
BBX 11 10 0 0
BITMAP
CF80
DFC0
B8E0
3060
3060
3060
18C0
0D80
3DE0
3DE0
ENDCHAR
STARTCHAR iotadieresistonos
ENCODING 912
SWIDTH 277 0
DWIDTH 4 0
BBX 5 12 0 0
BITMAP
30
B8
A8
00
60
60
60
60
60
60
60
60
ENDCHAR
STARTCHAR Alpha
ENCODING 913
SWIDTH 722 0
DWIDTH 9 0
BBX 9 10 0 0
BITMAP
1C00
1C00
3600
3600
3600
6300
7F00
7F00
E180
C180
ENDCHAR
STARTCHAR Beta
ENCODING 914
SWIDTH 722 0
DWIDTH 10 0
BBX 8 10 1 0
BITMAP
FE
FF
C3
C3
FE
FE
C3
C3
FF
FE
ENDCHAR
STARTCHAR Gamma
ENCODING 915
SWIDTH 601 0
DWIDTH 8 0
BBX 7 10 1 0
BITMAP
FE
FE
C0
C0
C0
C0
C0
C0
C0
C0
ENDCHAR
STARTCHAR Delta
ENCODING 916
SWIDTH 718 0
DWIDTH 10 0
BBX 8 10 1 0
BITMAP
18
3C
3C
24
66
66
66
C3
FF
FF
ENDCHAR
STARTCHAR Epsilon
ENCODING 917
SWIDTH 666 0
DWIDTH 9 0
BBX 7 10 1 0
BITMAP
FE
FE
C0
C0
FC
FC
C0
C0
FE
FE
ENDCHAR
STARTCHAR Zeta
ENCODING 918
SWIDTH 610 0
DWIDTH 8 0
BBX 6 10 1 0
BITMAP
FC
FC
1C
18
30
30
60
E0
FC
FC
ENDCHAR
STARTCHAR Eta
ENCODING 919
SWIDTH 722 0
DWIDTH 10 0
BBX 8 10 1 0
BITMAP
C3
C3
C3
C3
FF
FF
C3
C3
C3
C3
ENDCHAR
STARTCHAR Theta
ENCODING 920
SWIDTH 777 0
DWIDTH 11 0
BBX 9 10 1 0
BITMAP
3E00
7F00
E380
C180
DD80
DD80
C180
E380
7F00
3E00
ENDCHAR
STARTCHAR Iota
ENCODING 921
SWIDTH 277 0
DWIDTH 4 0
BBX 2 10 1 0
BITMAP
C0
C0
C0
C0
C0
C0
C0
C0
C0
C0
ENDCHAR
STARTCHAR Kappa
ENCODING 922
SWIDTH 722 0
DWIDTH 10 0
BBX 9 10 1 0
BITMAP
C380
C700
CE00
D800
F800
EC00
CC00
C600
C300
C180
ENDCHAR
STARTCHAR Lambda
ENCODING 923
SWIDTH 666 0
DWIDTH 9 0
BBX 9 10 0 0
BITMAP
1C00
1C00
1400
3600
3600
6300
6300
6300
C180
C180
ENDCHAR
STARTCHAR Mu
ENCODING 924
SWIDTH 833 0
DWIDTH 13 0
BBX 11 10 1 0
BITMAP
E0E0
E0E0
F1E0
F1E0
DB60
DB60
DB60
CE60
CE60
C460
ENDCHAR
STARTCHAR Nu
ENCODING 925
SWIDTH 722 0
DWIDTH 10 0
BBX 8 10 1 0
BITMAP
C3
E3
E3
D3
D3
CB
CB
C7
C7
C3
ENDCHAR
STARTCHAR Xi
ENCODING 926
SWIDTH 643 0
DWIDTH 9 0
BBX 7 10 1 0
BITMAP
FE
FE
00
00
7C
7C
00
00
FE
FE
ENDCHAR
STARTCHAR Omicron
ENCODING 927
SWIDTH 777 0
DWIDTH 11 0
BBX 9 10 1 0
BITMAP
3E00
7F00
E380
C180
C180
C180
C180
E380
7F00
3E00
ENDCHAR
STARTCHAR Pi
ENCODING 928
SWIDTH 722 0
DWIDTH 10 0
BBX 8 10 1 0
BITMAP
FF
FF
C3
C3
C3
C3
C3
C3
C3
C3
ENDCHAR
STARTCHAR Rho
ENCODING 929
SWIDTH 666 0
DWIDTH 9 0
BBX 7 10 1 0
BITMAP
FC
FE
C6
C6
FE
FC
C0
C0
C0
C0
ENDCHAR
STARTCHAR Sigma
ENCODING 931
SWIDTH 600 0
DWIDTH 8 0
BBX 6 10 1 0
BITMAP
FC
FC
C0
60
30
70
60
C0
FC
FC
ENDCHAR
STARTCHAR Tau
ENCODING 932
SWIDTH 610 0
DWIDTH 8 0
BBX 6 10 1 0
BITMAP
FC
FC
30
30
30
30
30
30
30
30
ENDCHAR
STARTCHAR Upsilon
ENCODING 933
SWIDTH 666 0
DWIDTH 10 0
BBX 8 10 1 0
BITMAP
C3
66
66
3C
3C
18
18
18
18
18
ENDCHAR
STARTCHAR Phi
ENCODING 934
SWIDTH 820 0
DWIDTH 12 0
BBX 10 10 1 0
BITMAP
0C00
3F00
7F80
CCC0
CCC0
CCC0
EDC0
7F80
3F00
0C00
ENDCHAR
STARTCHAR Chi
ENCODING 935
SWIDTH 666 0
DWIDTH 9 0
BBX 9 10 0 0
BITMAP
C180
6300
3600
3E00
1C00
1C00
3600
6300
6300
C180
ENDCHAR
STARTCHAR Psi
ENCODING 936
SWIDTH 809 0
DWIDTH 12 0
BBX 10 10 1 0
BITMAP
CCC0
CCC0
CCC0
CCC0
CCC0
FFC0
7F80
0C00
0C00
0C00
ENDCHAR
STARTCHAR Omega
ENCODING 937
SWIDTH 801 0
DWIDTH 11 0
BBX 9 10 1 0
BITMAP
3E00
7F00
E380
C180
C180
C180
6300
3600
F780
F780
ENDCHAR
STARTCHAR Iotadieresis
ENCODING 938
SWIDTH 277 0
DWIDTH 4 0
BBX 5 13 0 0
BITMAP
D8
D8
00
60
60
60
60
60
60
60
60
60
60
ENDCHAR
STARTCHAR Upsilondieresis
ENCODING 939
SWIDTH 666 0
DWIDTH 10 0
BBX 8 13 1 0
BITMAP
36
36
00
C3
66
66
3C
3C
18
18
18
18
18
ENDCHAR
STARTCHAR alphatonos
ENCODING 940
SWIDTH 614 0
DWIDTH 9 0
BBX 8 12 1 0
BITMAP
18
18
10
00
7B
FE
CE
C6
C6
CE
FA
7B
ENDCHAR
STARTCHAR epsilontonos
ENCODING 941
SWIDTH 451 0
DWIDTH 7 0
BBX 6 12 1 0
BITMAP
18
18
10
00
78
FC
C0
30
C0
C0
FC
78
ENDCHAR
STARTCHAR etatonos
ENCODING 942
SWIDTH 610 0
DWIDTH 9 0
BBX 7 15 1 -3
BITMAP
18
18
10
00
DC
FE
C6
C6
C6
C6
C6
C6
06
06
06
ENDCHAR
STARTCHAR iotatonos
ENCODING 943
SWIDTH 277 0
DWIDTH 4 0
BBX 3 12 1 0
BITMAP
60
60
40
00
C0
C0
C0
C0
C0
C0
C0
C0
ENDCHAR
STARTCHAR upsilondieresistonos
ENCODING 944
SWIDTH 582 0
DWIDTH 8 0
BBX 6 12 1 0
BITMAP
18
5C
54
00
D8
CC
CC
CC
CC
CC
F8
78
ENDCHAR
STARTCHAR alpha
ENCODING 945
SWIDTH 614 0
DWIDTH 9 0
BBX 8 8 1 0
BITMAP
7B
FE
CE
C6
C6
CE
FA
7B
ENDCHAR
STARTCHAR beta
ENCODING 946
SWIDTH 610 0
DWIDTH 9 0
BBX 7 14 1 -3
BITMAP
7C
FE
C6
C6
DC
DE
C6
C6
C6
FE
FC
C0
C0
C0
ENDCHAR
STARTCHAR gamma
ENCODING 947
SWIDTH 556 0
DWIDTH 8 0
BBX 8 11 0 -3
BITMAP
C3
C3
66
66
24
3C
3C
18
18
30
30
ENDCHAR
STARTCHAR delta
ENCODING 948
SWIDTH 606 0
DWIDTH 8 0
BBX 6 11 1 0
BITMAP
7C
7C
30
38
78
DC
CC
CC
CC
FC
78
ENDCHAR
STARTCHAR epsilon
ENCODING 949
SWIDTH 474 0
DWIDTH 7 0
BBX 6 8 1 0
BITMAP
78
FC
C0
30
C0
C0
FC
78
ENDCHAR
STARTCHAR zeta
ENCODING 950
SWIDTH 460 0
DWIDTH 6 0
BBX 5 14 1 -3
BITMAP
78
78
18
30
60
60
C0
C0
C0
E0
78
18
18
18
ENDCHAR
STARTCHAR eta
ENCODING 951
SWIDTH 610 0
DWIDTH 9 0
BBX 7 11 1 -3
BITMAP
DC
FE
C6
C6
C6
C6
C6
C6
06
06
06
ENDCHAR
STARTCHAR theta
ENCODING 952
SWIDTH 540 0
DWIDTH 8 0
BBX 6 11 1 0
BITMAP
78
78
CC
CC
FC
FC
CC
CC
CC
78
78
ENDCHAR
STARTCHAR iota
ENCODING 953
SWIDTH 277 0
DWIDTH 4 0
BBX 2 8 1 0
BITMAP
C0
C0
C0
C0
C0
C0
C0
C0
ENDCHAR
STARTCHAR kappa
ENCODING 954
SWIDTH 557 0
DWIDTH 8 0
BBX 7 8 1 0
BITMAP
C6
CC
D8
F0
F8
CC
CC
C6
ENDCHAR
STARTCHAR lambda
ENCODING 955
SWIDTH 556 0
DWIDTH 8 0
BBX 8 11 0 0
BITMAP
70
78
18
18
1C
1C
34
36
66
63
C3
ENDCHAR
STARTCHAR mu
ENCODING 956
SWIDTH 611 0
DWIDTH 9 0
BBX 7 11 1 -3
BITMAP
C6
C6
C6
C6
C6
CE
FE
F6
C0
C0
C0
ENDCHAR
STARTCHAR nu
ENCODING 957
SWIDTH 556 0
DWIDTH 9 0
BBX 8 8 0 0
BITMAP
C3
C3
63
63
26
36
3C
18
ENDCHAR
STARTCHAR xi
ENCODING 958
SWIDTH 445 0
DWIDTH 6 0
BBX 5 14 1 -3
BITMAP
F8
F8
40
C0
70
70
C0
C0
C0
F0
78
18
18
18
ENDCHAR
STARTCHAR omicron
ENCODING 959
SWIDTH 610 0
DWIDTH 9 0
BBX 7 8 1 0
BITMAP
38
7C
C6
C6
C6
C6
7C
38
ENDCHAR
STARTCHAR pi
ENCODING 960
SWIDTH 765 0
DWIDTH 11 0
BBX 11 8 0 0
BITMAP
FFE0
FFE0
3180
3180
3180
3180
31E0
60E0
ENDCHAR
STARTCHAR rho
ENCODING 961
SWIDTH 618 0
DWIDTH 9 0
BBX 7 11 1 -3
BITMAP
78
7C
C6
C6
C6
C6
FC
FC
C0
C0
C0
ENDCHAR
STARTCHAR sigma1
ENCODING 962
SWIDTH 520 0
DWIDTH 7 0
BBX 5 11 1 -3
BITMAP
38
78
E0
C0
C0
C0
E0
78
18
18
18
ENDCHAR
STARTCHAR sigma
ENCODING 963
SWIDTH 684 0
DWIDTH 10 0
BBX 8 8 1 0
BITMAP
3F
7F
E4
C6
C6
C6
7E
3C
ENDCHAR
STARTCHAR tau
ENCODING 964
SWIDTH 446 0
DWIDTH 6 0
BBX 6 8 0 0
BITMAP
FC
FC
30
30
30
30
38
38
ENDCHAR
STARTCHAR upsilon
ENCODING 965
SWIDTH 582 0
DWIDTH 8 0
BBX 6 8 1 0
BITMAP
D8
CC
CC
CC
CC
CC
F8
78
ENDCHAR
STARTCHAR phi
ENCODING 966
SWIDTH 715 0
DWIDTH 10 0
BBX 8 11 1 -3
BITMAP
6E
FF
DB
DB
DB
DB
7E
7E
18
18
18
ENDCHAR
STARTCHAR chi
ENCODING 967
SWIDTH 575 0
DWIDTH 8 0
BBX 8 11 0 -3
BITMAP
E3
E6
36
3C
18
1C
3C
26
66
63
C3
ENDCHAR
STARTCHAR psi
ENCODING 968
SWIDTH 753 0
DWIDTH 12 0
BBX 10 13 1 -3
BITMAP
0C00
0C00
CCC0
CCC0
CCC0
CCC0
CCC0
CCC0
FFC0
7F80
0C00
0C00
0C00
ENDCHAR
STARTCHAR omega
ENCODING 969
SWIDTH 844 0
DWIDTH 12 0
BBX 10 8 1 0
BITMAP
2100
6180
C0C0
CCC0
CCC0
CCC0
FFC0
7380
ENDCHAR
STARTCHAR iotadieresis
ENCODING 970
SWIDTH 277 0
DWIDTH 4 0
BBX 5 11 0 0
BITMAP
D8
D8
00
60
60
60
60
60
60
60
60
ENDCHAR
STARTCHAR upsilondieresis
ENCODING 971
SWIDTH 582 0
DWIDTH 8 0
BBX 6 11 1 0
BITMAP
D8
D8
00
D8
CC
CC
CC
CC
CC
F8
78
ENDCHAR
STARTCHAR omicrontonos
ENCODING 972
SWIDTH 610 0
DWIDTH 9 0
BBX 7 12 1 0
BITMAP
18
18
10
00
38
7C
C6
C6
C6
C6
7C
38
ENDCHAR
STARTCHAR upsilontonos
ENCODING 973
SWIDTH 582 0
DWIDTH 8 0
BBX 6 12 1 0
BITMAP
30
30
20
00
D8
CC
CC
CC
CC
CC
F8
78
ENDCHAR
STARTCHAR omegatonos
ENCODING 974
SWIDTH 844 0
DWIDTH 12 0
BBX 10 12 1 0
BITMAP
0600
0600
0400
0000
2100
6180
C0C0
CCC0
CCC0
CCC0
FFC0
7380
ENDCHAR
STARTCHAR afii10023
ENCODING 1025
SWIDTH 668 0
DWIDTH 9 0
BBX 7 13 1 0
BITMAP
6C
6C
00
FE
FE
C0
C0
FC
FC
C0
C0
FE
FE
ENDCHAR
STARTCHAR afii10051
ENCODING 1026
SWIDTH 885 0
DWIDTH 12 0
BBX 11 10 0 0
BITMAP
FF00
FF00
1800
1FC0
1FE0
1860
1860
1860
1BE0
1BC0
ENDCHAR
STARTCHAR afii10052
ENCODING 1027
SWIDTH 566 0
DWIDTH 8 0
BBX 6 13 2 0
BITMAP
18
30
00
FC
FC
C0
C0
C0
C0
C0
C0
C0
C0
ENDCHAR
STARTCHAR afii10053
ENCODING 1028
SWIDTH 711 0
DWIDTH 10 0
BBX 8 10 1 0
BITMAP
3C
7F
E3
C0
F8
F8
C0
E3
7E
3C
ENDCHAR
STARTCHAR afii10054
ENCODING 1029
SWIDTH 666 0
DWIDTH 9 0
BBX 7 10 1 0
BITMAP
7C
FE
C6
C0
78
3E
06
C6
FE
7C
ENDCHAR
STARTCHAR afii10055
ENCODING 1030
SWIDTH 277 0
DWIDTH 4 0
BBX 2 10 1 0
BITMAP
C0
C0
C0
C0
C0
C0
C0
C0
C0
C0
ENDCHAR
STARTCHAR afii10056
ENCODING 1031
SWIDTH 275 0
DWIDTH 4 0
BBX 5 13 0 0
BITMAP
D8
D8
00
60
60
60
60
60
60
60
60
60
60
ENDCHAR
STARTCHAR afii10057
ENCODING 1032
SWIDTH 556 0
DWIDTH 8 0
BBX 7 10 0 0
BITMAP
1E
1E
06
06
06
06
06
C6
FE
7C
ENDCHAR
STARTCHAR afii10058
ENCODING 1033
SWIDTH 1093 0
DWIDTH 15 0
BBX 14 10 0 0
BITMAP
3F00
3F00
3300
3300
63F8
63FC
630C
630C
E3FC
C3F8
ENDCHAR
STARTCHAR afii10059
ENCODING 1034
SWIDTH 1062 0
DWIDTH 15 0
BBX 13 10 1 0
BITMAP
C300
C300
C300
C300
FFF0
FFF8
C318
C318
C3F8
C3F0
ENDCHAR
STARTCHAR afii10060
ENCODING 1035
SWIDTH 875 0
DWIDTH 12 0
BBX 11 10 0 0
BITMAP
FF00
FF00
1800
1FC0
1FE0
1860
1860
1860
1860
1860
ENDCHAR
STARTCHAR afii10061
ENCODING 1036
SWIDTH 610 0
DWIDTH 9 0
BBX 8 13 1 0
BITMAP
0C
18
00
C3
C6
CC
D8
F8
F8
CC
CE
C6
C3
ENDCHAR
STARTCHAR afii10062
ENCODING 1038
SWIDTH 622 0
DWIDTH 9 0
BBX 9 13 0 0
BITMAP
3600
1C00
0000
C180
6300
7300
3600
1E00
0C00
0C00
1800
F800
F000
ENDCHAR
STARTCHAR afii10145
ENCODING 1039
SWIDTH 718 0
DWIDTH 10 0
BBX 8 13 1 -3
BITMAP
C3
C3
C3
C3
C3
C3
C3
C3
FF
FF
18
18
18
ENDCHAR
STARTCHAR afii10017
ENCODING 1040
SWIDTH 722 0
DWIDTH 9 0
BBX 9 10 0 0
BITMAP
1C00
1C00
3600
3600
3600
6300
7F00
7F00
E180
C180
ENDCHAR
STARTCHAR afii10018
ENCODING 1041
SWIDTH 718 0
DWIDTH 10 0
BBX 8 10 1 0
BITMAP
FE
FE
C0
C0
FE
FF
C3
C3
FF
FE
ENDCHAR
STARTCHAR afii10019
ENCODING 1042
SWIDTH 722 0
DWIDTH 10 0
BBX 8 10 1 0
BITMAP
FE
FF
C3
C3
FE
FE
C3
C3
FF
FE
ENDCHAR
STARTCHAR afii10020
ENCODING 1043
SWIDTH 566 0
DWIDTH 8 0
BBX 6 10 1 0
BITMAP
FC
FC
C0
C0
C0
C0
C0
C0
C0
C0
ENDCHAR
STARTCHAR afii10021
ENCODING 1044
SWIDTH 712 0
DWIDTH 10 0
BBX 9 13 0 -3
BITMAP
1F00
1F00
1B00
3B00
3300
3300
3300
6300
FF80
FF80
C180
C180
C180
ENDCHAR
STARTCHAR afii10022
ENCODING 1045
SWIDTH 666 0
DWIDTH 9 0
BBX 7 10 1 0
BITMAP
FE
FE
C0
C0
FC
FC
C0
C0
FE
FE
ENDCHAR
STARTCHAR afii10024
ENCODING 1046
SWIDTH 903 0
DWIDTH 12 0
BBX 12 10 0 0
BITMAP
C630
6660
6660
36C0
1F80
36C0
36C0
6660
6660
C630
ENDCHAR
STARTCHAR afii10025
ENCODING 1047
SWIDTH 626 0
DWIDTH 9 0
BBX 7 10 1 0
BITMAP
3C
7E
C6
06
1C
1C
06
C6
FE
7C
ENDCHAR
STARTCHAR afii10026
ENCODING 1048
SWIDTH 718 0
DWIDTH 10 0
BBX 8 10 1 0
BITMAP
C7
C7
CF
CB
CB
DB
D3
F3
E3
E3
ENDCHAR
STARTCHAR afii10027
ENCODING 1049
SWIDTH 718 0
DWIDTH 10 0
BBX 8 13 1 0
BITMAP
36
1C
00
C7
C7
CF
CB
CB
DB
D3
F3
E3
E3
ENDCHAR
STARTCHAR afii10028
ENCODING 1050
SWIDTH 610 0
DWIDTH 9 0
BBX 8 10 1 0
BITMAP
C3
C6
CC
D8
F8
F8
CC
CE
C6
C3
ENDCHAR
STARTCHAR afii10029
ENCODING 1051
SWIDTH 701 0
DWIDTH 10 0
BBX 9 10 0 0
BITMAP
3F80
3F80
3180
3180
6180
6180
6180
6180
E180
C180
ENDCHAR
STARTCHAR afii10030
ENCODING 1052
SWIDTH 833 0
DWIDTH 13 0
BBX 11 10 1 0
BITMAP
E0E0
E0E0
F1E0
F1E0
DB60
DB60
DB60
CE60
CE60
C460
ENDCHAR
STARTCHAR afii10031
ENCODING 1053
SWIDTH 722 0
DWIDTH 10 0
BBX 8 10 1 0
BITMAP
C3
C3
C3
C3
FF
FF
C3
C3
C3
C3
ENDCHAR
STARTCHAR afii10032
ENCODING 1054
SWIDTH 777 0
DWIDTH 11 0
BBX 9 10 1 0
BITMAP
3E00
7F00
E380
C180
C180
C180
C180
E380
7F00
3E00
ENDCHAR
STARTCHAR afii10033
ENCODING 1055
SWIDTH 718 0
DWIDTH 10 0
BBX 8 10 1 0
BITMAP
FF
FF
C3
C3
C3
C3
C3
C3
C3
C3
ENDCHAR
STARTCHAR afii10034
ENCODING 1056
SWIDTH 666 0
DWIDTH 9 0
BBX 7 10 1 0
BITMAP
FC
FE
C6
C6
FE
FC
C0
C0
C0
C0
ENDCHAR
STARTCHAR afii10035
ENCODING 1057
SWIDTH 722 0
DWIDTH 10 0
BBX 8 10 1 0
BITMAP
3C
7F
E3
C0
C0
C0
C0
E3
7E
3C
ENDCHAR
STARTCHAR afii10036
ENCODING 1058
SWIDTH 610 0
DWIDTH 8 0
BBX 6 10 1 0
BITMAP
FC
FC
30
30
30
30
30
30
30
30
ENDCHAR
STARTCHAR afii10037
ENCODING 1059
SWIDTH 622 0
DWIDTH 9 0
BBX 9 10 0 0
BITMAP
C180
6300
7300
3600
1E00
0C00
0C00
1800
F800
F000
ENDCHAR
STARTCHAR afii10038
ENCODING 1060
SWIDTH 853 0
DWIDTH 12 0
BBX 10 10 1 0
BITMAP
0C00
3F00
7F80
CCC0
CCC0
CCC0
CCC0
7F80
3F00
0C00
ENDCHAR
STARTCHAR afii10039
ENCODING 1061
SWIDTH 666 0
DWIDTH 9 0
BBX 9 10 0 0
BITMAP
C180
6300
3600
3E00
1C00
1C00
3600
6300
6300
C180
ENDCHAR
STARTCHAR afii10040
ENCODING 1062
SWIDTH 730 0
DWIDTH 10 0
BBX 9 13 1 -3
BITMAP
C300
C300
C300
C300
C300
C300
C300
C300
FF80
FF80
0180
0180
0180
ENDCHAR
STARTCHAR afii10041
ENCODING 1063
SWIDTH 702 0
DWIDTH 10 0
BBX 8 10 1 0
BITMAP
C3
C3
C3
C3
C3
FF
7F
03
03
03
ENDCHAR
STARTCHAR afii10042
ENCODING 1064
SWIDTH 1004 0
DWIDTH 14 0
BBX 12 10 1 0
BITMAP
C630
C630
C630
C630
C630
C630
C630
C630
FFF0
FFF0
ENDCHAR
STARTCHAR afii10043
ENCODING 1065
SWIDTH 1019 0
DWIDTH 14 0
BBX 13 13 1 -3
BITMAP
C630
C630
C630
C630
C630
C630
C630
C630
FFF8
FFF8
0018
0018
0018
ENDCHAR
STARTCHAR afii10044
ENCODING 1066
SWIDTH 869 0
DWIDTH 12 0
BBX 11 10 0 0
BITMAP
F800
F800
1800
1800
1FC0
1FE0
1860
1860
1FE0
1FC0
ENDCHAR
STARTCHAR afii10045
ENCODING 1067
SWIDTH 979 0
DWIDTH 14 0
BBX 12 10 1 0
BITMAP
C030
C030
C030
C030
FF30
FFB0
C1B0
C1B0
FFB0
FE30
ENDCHAR
STARTCHAR afii10046
ENCODING 1068
SWIDTH 718 0
DWIDTH 10 0
BBX 8 10 1 0
BITMAP
C0
C0
C0
C0
FE
FF
C3
C3
FF
FE
ENDCHAR
STARTCHAR afii10047
ENCODING 1069
SWIDTH 711 0
DWIDTH 10 0
BBX 8 10 1 0
BITMAP
3C
FE
C7
03
1F
1F
03
C7
7E
3C
ENDCHAR
STARTCHAR afii10048
ENCODING 1070
SWIDTH 1031 0
DWIDTH 14 0
BBX 12 10 1 0
BITMAP
C3C0
C7E0
CE70
CC30
FC30
FC30
CC30
CE70
C7E0
C3C0
ENDCHAR
STARTCHAR afii10049
ENCODING 1071
SWIDTH 718 0
DWIDTH 10 0
BBX 8 10 1 0
BITMAP
7F
FF
C3
C3
C3
7F
3F
63
63
C3
ENDCHAR
STARTCHAR afii10065
ENCODING 1072
SWIDTH 556 0
DWIDTH 8 0
BBX 7 8 1 0
BITMAP
78
FC
0C
7C
FC
CC
FE
66
ENDCHAR
STARTCHAR afii10066
ENCODING 1073
SWIDTH 617 0
DWIDTH 9 0
BBX 7 11 1 0
BITMAP
0E
3E
40
BC
FE
C6
C6
C6
C6
7C
3C
ENDCHAR
STARTCHAR afii10067
ENCODING 1074
SWIDTH 614 0
DWIDTH 9 0
BBX 7 8 1 0
BITMAP
FC
FE
C6
FC
FE
C6
FE
FC
ENDCHAR
STARTCHAR afii10068
ENCODING 1075
SWIDTH 416 0
DWIDTH 6 0
BBX 5 8 1 0
BITMAP
F8
F8
C0
C0
C0
C0
C0
C0
ENDCHAR
STARTCHAR afii10069
ENCODING 1076
SWIDTH 634 0
DWIDTH 9 0
BBX 9 11 0 -3
BITMAP
1F00
1F00
3B00
3300
3300
6300
FF80
FF80
C180
C180
C180
ENDCHAR
STARTCHAR afii10070
ENCODING 1077
SWIDTH 556 0
DWIDTH 9 0
BBX 7 8 1 0
BITMAP
38
7C
C6
FE
FE
C0
7E
3C
ENDCHAR
STARTCHAR afii10072
ENCODING 1078
SWIDTH 708 0
DWIDTH 10 0
BBX 10 8 0 0
BITMAP
CCC0
4C80
6D80
3F00
2D00
6D80
4C80
CCC0
ENDCHAR
STARTCHAR afii10073
ENCODING 1079
SWIDTH 497 0
DWIDTH 7 0
BBX 6 8 0 0
BITMAP
78
FC
0C
38
38
0C
FC
78
ENDCHAR
STARTCHAR afii10074
ENCODING 1080
SWIDTH 614 0
DWIDTH 9 0
BBX 7 8 1 0
BITMAP
C6
CE
CE
DE
F6
F6
E6
E6
ENDCHAR
STARTCHAR afii10075
ENCODING 1081
SWIDTH 614 0
DWIDTH 9 0
BBX 7 11 1 0
BITMAP
6C
38
00
C6
CE
CE
DE
F6
F6
E6
E6
ENDCHAR
STARTCHAR afii10076
ENCODING 1082
SWIDTH 500 0
DWIDTH 7 0
BBX 6 8 1 0
BITMAP
CC
C8
D8
F0
F0
D8
C8
CC
ENDCHAR
STARTCHAR afii10077
ENCODING 1083
SWIDTH 635 0
DWIDTH 9 0
BBX 8 8 0 0
BITMAP
3F
3F
33
23
63
63
E3
C3
ENDCHAR
STARTCHAR afii10078
ENCODING 1084
SWIDTH 739 0
DWIDTH 11 0
BBX 9 8 1 0
BITMAP
E380
E380
F780
F780
D580
D580
DD80
C980
ENDCHAR
STARTCHAR afii10079
ENCODING 1085
SWIDTH 604 0
DWIDTH 8 0
BBX 6 8 1 0
BITMAP
CC
CC
CC
FC
FC
CC
CC
CC
ENDCHAR
STARTCHAR afii10080
ENCODING 1086
SWIDTH 610 0
DWIDTH 9 0
BBX 7 8 1 0
BITMAP
38
7C
C6
C6
C6
C6
7C
38
ENDCHAR
STARTCHAR afii10081
ENCODING 1087
SWIDTH 604 0
DWIDTH 8 0
BBX 6 8 1 0
BITMAP
FC
FC
CC
CC
CC
CC
CC
CC
ENDCHAR
STARTCHAR afii10082
ENCODING 1088
SWIDTH 610 0
DWIDTH 9 0
BBX 7 11 1 -3
BITMAP
DC
FE
C6
C6
C6
C6
FE
DC
C0
C0
C0
ENDCHAR
STARTCHAR afii10083
ENCODING 1089
SWIDTH 556 0
DWIDTH 8 0
BBX 6 8 1 0
BITMAP
78
7C
CC
C0
C0
CC
7C
78
ENDCHAR
STARTCHAR afii10084
ENCODING 1090
SWIDTH 489 0
DWIDTH 6 0
BBX 6 8 0 0
BITMAP
FC
FC
30
30
30
30
30
30
ENDCHAR
STARTCHAR afii10085
ENCODING 1091
SWIDTH 556 0
DWIDTH 7 0
BBX 7 11 0 -3
BITMAP
C6
C6
64
6C
6C
28
38
38
30
F0
E0
ENDCHAR
STARTCHAR afii10086
ENCODING 1092
SWIDTH 875 0
DWIDTH 12 0
BBX 10 14 1 -3
BITMAP
0C00
0C00
0C00
7D80
FFC0
CCC0
CCC0
CCC0
CCC0
FFC0
6D80
0C00
0C00
0C00
ENDCHAR
STARTCHAR afii10087
ENCODING 1093
SWIDTH 556 0
DWIDTH 8 0
BBX 8 8 0 0
BITMAP
C3
66
3C
3C
38
3C
66
C3
ENDCHAR
STARTCHAR afii10088
ENCODING 1094
SWIDTH 614 0
DWIDTH 9 0
BBX 8 11 1 -3
BITMAP
C6
C6
C6
C6
C6
C6
FF
FF
03
03
03
ENDCHAR
STARTCHAR afii10089
ENCODING 1095
SWIDTH 580 0
DWIDTH 8 0
BBX 6 8 1 0
BITMAP
CC
CC
CC
CC
FC
7C
0C
0C
ENDCHAR
STARTCHAR afii10090
ENCODING 1096
SWIDTH 833 0
DWIDTH 12 0
BBX 10 8 1 0
BITMAP
CCC0
CCC0
CCC0
CCC0
CCC0
CCC0
FFC0
FFC0
ENDCHAR
STARTCHAR afii10091
ENCODING 1097
SWIDTH 843 0
DWIDTH 12 0
BBX 11 11 1 -3
BITMAP
CCC0
CCC0
CCC0
CCC0
CCC0
CCC0
FFE0
FFE0
0060
0060
0060
ENDCHAR
STARTCHAR afii10092
ENCODING 1098
SWIDTH 729 0
DWIDTH 10 0
BBX 9 8 0 0
BITMAP
F000
F000
3000
3F00
3F80
3180
3F80
3F00
ENDCHAR
STARTCHAR afii10093
ENCODING 1099
SWIDTH 854 0
DWIDTH 12 0
BBX 10 8 1 0
BITMAP
C0C0
C0C0
C0C0
FCC0
FEC0
C6C0
FEC0
FCC0
ENDCHAR
STARTCHAR afii10094
ENCODING 1100
SWIDTH 614 0
DWIDTH 9 0
BBX 7 8 1 0
BITMAP
C0
C0
C0
FC
FE
C6
FE
FC
ENDCHAR
STARTCHAR afii10095
ENCODING 1101
SWIDTH 552 0
DWIDTH 8 0
BBX 7 8 0 0
BITMAP
78
FC
C6
1E
1E
C6
FC
38
ENDCHAR
STARTCHAR afii10096
ENCODING 1102
SWIDTH 854 0
DWIDTH 12 0
BBX 10 8 1 0
BITMAP
CF00
CF80
D8C0
F8C0
F8C0
D8C0
DF80
CF00
ENDCHAR
STARTCHAR afii10097
ENCODING 1103
SWIDTH 583 0
DWIDTH 8 0
BBX 7 8 0 0
BITMAP
3E
7E
66
7E
3E
36
66
C6
ENDCHAR
STARTCHAR afii10071
ENCODING 1105
SWIDTH 556 0
DWIDTH 9 0
BBX 7 11 1 0
BITMAP
6C
6C
00
38
7C
C6
FE
FE
C0
7E
3C
ENDCHAR
STARTCHAR afii10099
ENCODING 1106
SWIDTH 610 0
DWIDTH 9 0
BBX 8 14 0 -3
BITMAP
60
F8
F8
60
6E
7F
63
63
63
63
63
03
07
07
ENDCHAR
STARTCHAR afii10100
ENCODING 1107
SWIDTH 416 0
DWIDTH 6 0
BBX 5 12 1 0
BITMAP
18
30
20
00
F8
F8
C0
C0
C0
C0
C0
C0
ENDCHAR
STARTCHAR afii10101
ENCODING 1108
SWIDTH 552 0
DWIDTH 8 0
BBX 7 8 1 0
BITMAP
3C
7E
C6
F0
F0
C6
7E
38
ENDCHAR
STARTCHAR afii10102
ENCODING 1109
SWIDTH 556 0
DWIDTH 8 0
BBX 6 8 1 0
BITMAP
78
FC
C0
F8
3C
0C
FC
78
ENDCHAR
STARTCHAR afii10103
ENCODING 1110
SWIDTH 277 0
DWIDTH 4 0
BBX 2 11 1 0
BITMAP
C0
C0
00
C0
C0
C0
C0
C0
C0
C0
C0
ENDCHAR
STARTCHAR afii10104
ENCODING 1111
SWIDTH 281 0
DWIDTH 4 0
BBX 5 11 0 0
BITMAP
D8
D8
00
60
60
60
60
60
60
60
60
ENDCHAR
STARTCHAR afii10105
ENCODING 1112
SWIDTH 277 0
DWIDTH 4 0
BBX 3 14 0 -3
BITMAP
60
60
00
60
60
60
60
60
60
60
60
60
E0
C0
ENDCHAR
STARTCHAR afii10106
ENCODING 1113
SWIDTH 968 0
DWIDTH 14 0
BBX 13 8 0 0
BITMAP
3F00
3F00
3300
23F0
63F8
6318
E3F8
C3F0
ENDCHAR
STARTCHAR afii10107
ENCODING 1114
SWIDTH 906 0
DWIDTH 13 0
BBX 11 8 1 0
BITMAP
CC00
CC00
CC00
FFC0
FFE0
CC60
CFE0
CFC0
ENDCHAR
STARTCHAR afii10108
ENCODING 1115
SWIDTH 610 0
DWIDTH 9 0
BBX 8 11 0 0
BITMAP
60
F8
F8
60
6E
7F
63
63
63
63
63
ENDCHAR
STARTCHAR afii10109
ENCODING 1116
SWIDTH 500 0
DWIDTH 7 0
BBX 6 12 1 0
BITMAP
18
30
20
00
CC
C8
D8
F0
F0
D8
C8
CC
ENDCHAR
STARTCHAR afii10110
ENCODING 1118
SWIDTH 556 0
DWIDTH 7 0
BBX 7 14 0 -3
BITMAP
6C
38
00
C6
C6
64
6C
6C
28
38
38
30
F0
E0
ENDCHAR
STARTCHAR afii10193
ENCODING 1119
SWIDTH 604 0
DWIDTH 8 0
BBX 6 11 1 -3
BITMAP
CC
CC
CC
CC
CC
CC
FC
FC
30
30
30
ENDCHAR
STARTCHAR afii10050
ENCODING 1168
SWIDTH 486 0
DWIDTH 7 0
BBX 6 13 1 0
BITMAP
0C
0C
0C
FC
FC
C0
C0
C0
C0
C0
C0
C0
C0
ENDCHAR
STARTCHAR afii10098
ENCODING 1169
SWIDTH 446 0
DWIDTH 6 0
BBX 5 11 1 0
BITMAP
18
18
18
F8
F8
C0
C0
C0
C0
C0
C0
ENDCHAR
STARTCHAR Wgrave
ENCODING 7808
SWIDTH 943 0
DWIDTH 13 0
BBX 13 13 0 0
BITMAP
0600
0300
0000
C718
C718
C518
65B0
6DB0
6DB0
6CB0
38A0
38E0
38E0
ENDCHAR
STARTCHAR wgrave
ENCODING 7809
SWIDTH 777 0
DWIDTH 11 0
BBX 11 12 0 0
BITMAP
0C00
0600
0200
0000
CE60
CA60
CA60
4A40
7BC0
7BC0
7180
3180
ENDCHAR
STARTCHAR Wacute
ENCODING 7810
SWIDTH 943 0
DWIDTH 13 0
BBX 13 13 0 0
BITMAP
0180
0300
0000
C718
C718
C518
65B0
6DB0
6DB0
6CB0
38A0
38E0
38E0
ENDCHAR
STARTCHAR wacute
ENCODING 7811
SWIDTH 777 0
DWIDTH 11 0
BBX 11 12 0 0
BITMAP
0300
0600
0400
0000
CE60
CA60
CA60
4A40
7BC0
7BC0
7180
3180
ENDCHAR
STARTCHAR Wdieresis
ENCODING 7812
SWIDTH 943 0
DWIDTH 13 0
BBX 13 13 0 0
BITMAP
0D80
0D80
0000
C718
C718
C518
65B0
6DB0
6DB0
6CB0
38A0
38E0
38E0
ENDCHAR
STARTCHAR wdieresis
ENCODING 7813
SWIDTH 777 0
DWIDTH 11 0
BBX 11 11 0 0
BITMAP
1B00
1B00
0000
CE60
CA60
CA60
4A40
7BC0
7BC0
7180
3180
ENDCHAR
STARTCHAR Ygrave
ENCODING 7922
SWIDTH 666 0
DWIDTH 10 0
BBX 8 13 1 0
BITMAP
30
18
00
C3
66
66
3C
3C
18
18
18
18
18
ENDCHAR
STARTCHAR ygrave
ENCODING 7923
SWIDTH 556 0
DWIDTH 7 0
BBX 7 15 0 -3
BITMAP
60
30
10
00
C6
C6
64
6C
6C
28
38
38
30
F0
E0
ENDCHAR
STARTCHAR uni2010
ENCODING 8208
SWIDTH 333 0
DWIDTH 5 0
BBX 3 2 1 2
BITMAP
E0
E0
ENDCHAR
STARTCHAR uni2011
ENCODING 8209
SWIDTH 333 0
DWIDTH 5 0
BBX 3 2 1 2
BITMAP
E0
E0
ENDCHAR
STARTCHAR figuredash
ENCODING 8210
SWIDTH 333 0
DWIDTH 5 0
BBX 3 2 1 2
BITMAP
E0
E0
ENDCHAR
STARTCHAR endash
ENCODING 8211
SWIDTH 556 0
DWIDTH 8 0
BBX 7 1 0 3
BITMAP
FE
ENDCHAR
STARTCHAR emdash
ENCODING 8212
SWIDTH 1000 0
DWIDTH 14 0
BBX 14 1 0 3
BITMAP
FFFC
ENDCHAR
STARTCHAR afii00208
ENCODING 8213
SWIDTH 1000 0
DWIDTH 14 0
BBX 14 1 0 3
BITMAP
FFFC
ENDCHAR
STARTCHAR underscoredbl
ENCODING 8215
SWIDTH 552 0
DWIDTH 8 0
BBX 8 3 0 -4
BITMAP
FF
00
FF
ENDCHAR
STARTCHAR quoteleft
ENCODING 8216
SWIDTH 277 0
DWIDTH 4 0
BBX 2 4 1 6
BITMAP
C0
80
C0
C0
ENDCHAR
STARTCHAR quoteright
ENCODING 8217
SWIDTH 277 0
DWIDTH 4 0
BBX 2 4 1 6
BITMAP
C0
C0
40
C0
ENDCHAR
STARTCHAR quotesinglbase
ENCODING 8218
SWIDTH 277 0
DWIDTH 4 0
BBX 2 4 1 -2
BITMAP
C0
C0
40
C0
ENDCHAR
STARTCHAR quotereversed
ENCODING 8219
SWIDTH 277 0
DWIDTH 4 0
BBX 2 4 1 6
BITMAP
C0
C0
80
C0
ENDCHAR
STARTCHAR quotedblleft
ENCODING 8220
SWIDTH 500 0
DWIDTH 7 0
BBX 5 4 1 6
BITMAP
D8
90
D8
D8
ENDCHAR
STARTCHAR quotedblright
ENCODING 8221
SWIDTH 500 0
DWIDTH 7 0
BBX 5 4 1 6
BITMAP
D8
D8
48
D8
ENDCHAR
STARTCHAR quotedblbase
ENCODING 8222
SWIDTH 500 0
DWIDTH 7 0
BBX 5 4 1 -2
BITMAP
D8
D8
48
D8
ENDCHAR
STARTCHAR dagger
ENCODING 8224
SWIDTH 556 0
DWIDTH 8 0
BBX 6 12 1 -1
BITMAP
30
30
FC
30
30
30
30
30
30
30
30
30
ENDCHAR
STARTCHAR daggerdbl
ENCODING 8225
SWIDTH 556 0
DWIDTH 8 0
BBX 6 12 1 -1
BITMAP
30
30
FC
30
30
30
30
30
30
FC
30
30
ENDCHAR
STARTCHAR bullet
ENCODING 8226
SWIDTH 350 0
DWIDTH 5 0
BBX 4 4 0 3
BITMAP
60
F0
F0
60
ENDCHAR
STARTCHAR ellipsis
ENCODING 8230
SWIDTH 1000 0
DWIDTH 14 0
BBX 10 2 2 0
BITMAP
CCC0
CCC0
ENDCHAR
STARTCHAR perthousand
ENCODING 8240
SWIDTH 1000 0
DWIDTH 12 0
BBX 12 10 0 0
BITMAP
6200
9400
9400
9800
6800
1660
1990
2990
2990
4660
ENDCHAR
STARTCHAR minute
ENCODING 8242
SWIDTH 239 0
DWIDTH 3 0
BBX 2 4 1 6
BITMAP
C0
C0
80
80
ENDCHAR
STARTCHAR second
ENCODING 8243
SWIDTH 479 0
DWIDTH 7 0
BBX 6 4 1 6
BITMAP
CC
CC
88
88
ENDCHAR
STARTCHAR guilsinglleft
ENCODING 8249
SWIDTH 333 0
DWIDTH 5 0
BBX 3 5 1 2
BITMAP
60
C0
C0
C0
60
ENDCHAR
STARTCHAR guilsinglright
ENCODING 8250
SWIDTH 333 0
DWIDTH 5 0
BBX 3 5 1 2
BITMAP
C0
60
60
60
C0
ENDCHAR
STARTCHAR exclamdbl
ENCODING 8252
SWIDTH 604 0
DWIDTH 8 0
BBX 6 10 1 0
BITMAP
CC
CC
CC
CC
CC
CC
CC
00
CC
CC
ENDCHAR
STARTCHAR uni203E
ENCODING 8254
SWIDTH 333 0
DWIDTH 5 0
BBX 7 1 -1 10
BITMAP
FE
ENDCHAR
STARTCHAR fraction
ENCODING 8260
SWIDTH 166 0
DWIDTH 2 0
BBX 8 10 -3 0
BITMAP
01
02
04
0C
08
10
30
20
40
80
ENDCHAR
STARTCHAR uni207F
ENCODING 8319
SWIDTH 395 0
DWIDTH 6 0
BBX 4 4 1 4
BITMAP
F0
90
90
90
ENDCHAR
STARTCHAR franc
ENCODING 8355
SWIDTH 556 0
DWIDTH 8 0
BBX 7 10 0 0
BITMAP
7E
7E
60
60
7E
7E
60
F8
F8
60
ENDCHAR
STARTCHAR lira
ENCODING 8356
SWIDTH 556 0
DWIDTH 8 0
BBX 6 10 1 0
BITMAP
38
7C
60
F8
60
F8
60
4C
FC
F8
ENDCHAR
STARTCHAR peseta
ENCODING 8359
SWIDTH 1093 0
DWIDTH 15 0
BBX 13 10 1 0
BITMAP
F000
F800
DA00
DE00
DF70
F7C8
F6F0
C678
C698
C770
ENDCHAR
STARTCHAR Euro
ENCODING 8364
SWIDTH 556 0
DWIDTH 8 0
BBX 7 10 0 0
BITMAP
3C
3E
66
F8
60
F8
60
66
3E
1C
ENDCHAR
STARTCHAR afii61248
ENCODING 8453
SWIDTH 885 0
DWIDTH 12 0
BBX 12 10 0 0
BITMAP
60C0
9080
8100
8300
9260
6490
0C90
0890
1090
3060
ENDCHAR
STARTCHAR afii61289
ENCODING 8467
SWIDTH 488 0
DWIDTH 7 0
BBX 6 10 0 0
BITMAP
38
7C
6C
6C
78
F0
E0
6C
7C
38
ENDCHAR
STARTCHAR afii61352
ENCODING 8470
SWIDTH 1114 0
DWIDTH 16 0
BBX 14 10 1 0
BITMAP
C180
E180
F180
D198
D9A4
CDA4
C5A4
C798
C380
C1BC
ENDCHAR
STARTCHAR trademark
ENCODING 8482
SWIDTH 1000 0
DWIDTH 14 0
BBX 12 5 1 5
BITMAP
FB30
2330
22D0
22D0
22D0
ENDCHAR
STARTCHAR u2126
ENCODING 8486
SWIDTH 768 0
DWIDTH 11 0
BBX 9 10 1 0
BITMAP
3E00
7F00
E380
C180
C180
C180
6300
3600
F780
F780
ENDCHAR
STARTCHAR estimated
ENCODING 8494
SWIDTH 600 0
DWIDTH 8 0
BBX 6 8 1 0
BITMAP
78
48
CC
FC
C0
C0
44
38
ENDCHAR
STARTCHAR oneeighth
ENCODING 8539
SWIDTH 833 0
DWIDTH 12 0
BBX 10 10 1 0
BITMAP
4080
C100
4200
4600
E400
0BC0
1A40
1180
2240
43C0
ENDCHAR
STARTCHAR threeeighths
ENCODING 8540
SWIDTH 833 0
DWIDTH 12 0
BBX 11 10 0 0
BITMAP
F040
1080
6100
1300
F200
05E0
0D20
08C0
1120
21E0
ENDCHAR
STARTCHAR fiveeighths
ENCODING 8541
SWIDTH 833 0
DWIDTH 12 0
BBX 11 10 0 0
BITMAP
F040
8080
F100
1300
F200
05E0
0D20
08C0
1120
21E0
ENDCHAR
STARTCHAR seveneighths
ENCODING 8542
SWIDTH 833 0
DWIDTH 12 0
BBX 10 10 1 0
BITMAP
F080
2100
2200
4600
4400
0BC0
1A40
1180
2240
43C0
ENDCHAR
STARTCHAR arrowleft
ENCODING 8592
SWIDTH 1000 0
DWIDTH 14 0
BBX 8 3 3 1
BITMAP
40
FF
40
ENDCHAR
STARTCHAR arrowup
ENCODING 8593
SWIDTH 500 0
DWIDTH 7 0
BBX 3 8 2 0
BITMAP
40
E0
40
40
40
40
40
40
ENDCHAR
STARTCHAR arrowright
ENCODING 8594
SWIDTH 1000 0
DWIDTH 14 0
BBX 8 3 3 1
BITMAP
02
FF
02
ENDCHAR
STARTCHAR arrowdown
ENCODING 8595
SWIDTH 500 0
DWIDTH 7 0
BBX 3 8 2 0
BITMAP
40
40
40
40
40
40
E0
40
ENDCHAR
STARTCHAR arrowboth
ENCODING 8596
SWIDTH 1000 0
DWIDTH 14 0
BBX 8 3 3 1
BITMAP
42
FF
42
ENDCHAR
STARTCHAR arrowupdn
ENCODING 8597
SWIDTH 500 0
DWIDTH 7 0
BBX 3 8 2 0
BITMAP
40
E0
40
40
40
40
E0
40
ENDCHAR
STARTCHAR arrowupdnbse
ENCODING 8616
SWIDTH 500 0
DWIDTH 7 0
BBX 3 10 2 -2
BITMAP
40
E0
40
40
40
40
E0
40
00
E0
ENDCHAR
STARTCHAR partialdiff
ENCODING 8706
SWIDTH 494 0
DWIDTH 7 0
BBX 7 11 0 0
BITMAP
3C
3C
06
3E
7E
E6
C6
CE
CC
FC
78
ENDCHAR
STARTCHAR u2206
ENCODING 8710
SWIDTH 611 0
DWIDTH 8 0
BBX 8 10 0 0
BITMAP
18
3C
3C
24
66
66
42
C3
FF
FF
ENDCHAR
STARTCHAR product
ENCODING 8719
SWIDTH 823 0
DWIDTH 12 0
BBX 10 13 1 -3
BITMAP
FFC0
FFC0
C0C0
C0C0
C0C0
C0C0
C0C0
C0C0
C0C0
C0C0
C0C0
C0C0
C0C0
ENDCHAR
STARTCHAR summation
ENCODING 8721
SWIDTH 712 0
DWIDTH 10 0
BBX 8 13 1 -3
BITMAP
FF
FF
40
60
30
18
0C
18
30
60
40
FF
FF
ENDCHAR
STARTCHAR minus
ENCODING 8722
SWIDTH 583 0
DWIDTH 8 0
BBX 6 2 1 4
BITMAP
FC
FC
ENDCHAR
STARTCHAR fraction.dup4
ENCODING 8725
SWIDTH 166 0
DWIDTH 2 0
BBX 8 10 -3 0
BITMAP
01
02
04
0C
08
10
30
20
40
80
ENDCHAR
STARTCHAR periodcentered.dup5
ENCODING 8729
SWIDTH 277 0
DWIDTH 4 0
BBX 2 2 1 4
BITMAP
C0
C0
ENDCHAR
STARTCHAR radical
ENCODING 8730
SWIDTH 548 0
DWIDTH 8 0
BBX 8 11 0 0
BITMAP
01
01
02
02
04
84
C4
68
28
18
10
ENDCHAR
STARTCHAR infinity
ENCODING 8734
SWIDTH 712 0
DWIDTH 10 0
BBX 8 5 1 2
BITMAP
66
99
99
99
66
ENDCHAR
STARTCHAR orthogonal
ENCODING 8735
SWIDTH 979 0
DWIDTH 14 0
BBX 9 9 3 0
BITMAP
8000
8000
8000
8000
8000
8000
8000
8000
FF80
ENDCHAR
STARTCHAR intersection
ENCODING 8745
SWIDTH 722 0
DWIDTH 10 0
BBX 6 7 2 0
BITMAP
78
CC
84
84
84
84
84
ENDCHAR
STARTCHAR integral
ENCODING 8747
SWIDTH 273 0
DWIDTH 4 0
BBX 6 14 -1 -3
BITMAP
1C
3C
30
30
30
30
30
30
30
30
30
30
F0
E0
ENDCHAR
STARTCHAR approxequal
ENCODING 8776
SWIDTH 548 0
DWIDTH 8 0
BBX 7 6 0 2
BITMAP
70
FE
1E
F0
FE
1E
ENDCHAR
STARTCHAR notequal
ENCODING 8800
SWIDTH 548 0
DWIDTH 8 0
BBX 6 9 1 0
BITMAP
18
18
FC
FC
30
FC
FC
60
60
ENDCHAR
STARTCHAR equivalence
ENCODING 8801
SWIDTH 583 0
DWIDTH 8 0
BBX 6 6 1 2
BITMAP
FC
00
FC
00
00
FC
ENDCHAR
STARTCHAR lessequal
ENCODING 8804
SWIDTH 548 0
DWIDTH 8 0
BBX 6 9 1 0
BITMAP
0C
7C
F8
80
F0
7C
0C
FC
FC
ENDCHAR
STARTCHAR greaterequal
ENCODING 8805
SWIDTH 548 0
DWIDTH 8 0
BBX 6 9 1 0
BITMAP
C0
F8
3C
04
3C
F8
C0
FC
FC
ENDCHAR
STARTCHAR house
ENCODING 8962
SWIDTH 604 0
DWIDTH 8 0
BBX 6 8 1 0
BITMAP
20
30
48
84
84
84
84
FC
ENDCHAR
STARTCHAR revlogicalnot
ENCODING 8976
SWIDTH 583 0
DWIDTH 8 0
BBX 7 5 0 1
BITMAP
FE
FE
C0
C0
C0
ENDCHAR
STARTCHAR integraltp
ENCODING 8992
SWIDTH 604 0
DWIDTH 8 0
BBX 3 16 4 -4
BITMAP
60
80
80
80
80
80
80
80
80
80
80
80
80
80
80
80
ENDCHAR
STARTCHAR integralbt
ENCODING 8993
SWIDTH 604 0
DWIDTH 8 0
BBX 3 16 2 -4
BITMAP
20
20
20
20
20
20
20
20
20
20
20
20
20
20
20
C0
ENDCHAR
STARTCHAR SF100000
ENCODING 9472
SWIDTH 708 0
DWIDTH 10 0
BBX 10 1 0 4
BITMAP
FFC0
ENDCHAR
STARTCHAR SF110000
ENCODING 9474
SWIDTH 625 0
DWIDTH 9 0
BBX 1 17 4 -4
BITMAP
80
80
80
80
80
80
80
80
80
80
80
80
80
80
80
80
80
ENDCHAR
STARTCHAR SF010000
ENCODING 9484
SWIDTH 708 0
DWIDTH 10 0
BBX 6 9 4 -4
BITMAP
FC
80
80
80
80
80
80
80
80
ENDCHAR
STARTCHAR SF030000
ENCODING 9488
SWIDTH 708 0
DWIDTH 10 0
BBX 5 9 0 -4
BITMAP
F8
08
08
08
08
08
08
08
08
ENDCHAR
STARTCHAR SF020000
ENCODING 9492
SWIDTH 708 0
DWIDTH 10 0
BBX 6 9 4 4
BITMAP
80
80
80
80
80
80
80
80
FC
ENDCHAR
STARTCHAR SF040000
ENCODING 9496
SWIDTH 708 0
DWIDTH 10 0
BBX 5 9 0 4
BITMAP
08
08
08
08
08
08
08
08
F8
ENDCHAR
STARTCHAR SF080000
ENCODING 9500
SWIDTH 708 0
DWIDTH 10 0
BBX 6 17 4 -4
BITMAP
80
80
80
80
80
80
80
80
FC
80
80
80
80
80
80
80
80
ENDCHAR
STARTCHAR SF090000
ENCODING 9508
SWIDTH 708 0
DWIDTH 10 0
BBX 5 17 0 -4
BITMAP
08
08
08
08
08
08
08
08
F8
08
08
08
08
08
08
08
08
ENDCHAR
STARTCHAR SF060000
ENCODING 9516
SWIDTH 708 0
DWIDTH 10 0
BBX 10 9 0 -4
BITMAP
FFC0
0800
0800
0800
0800
0800
0800
0800
0800
ENDCHAR
STARTCHAR SF070000
ENCODING 9524
SWIDTH 708 0
DWIDTH 10 0
BBX 10 9 0 4
BITMAP
0800
0800
0800
0800
0800
0800
0800
0800
FFC0
ENDCHAR
STARTCHAR SF050000
ENCODING 9532
SWIDTH 708 0
DWIDTH 10 0
BBX 10 17 0 -4
BITMAP
0800
0800
0800
0800
0800
0800
0800
0800
FFC0
0800
0800
0800
0800
0800
0800
0800
0800
ENDCHAR
STARTCHAR SF430000
ENCODING 9552
SWIDTH 708 0
DWIDTH 10 0
BBX 10 3 0 3
BITMAP
FFC0
0000
FFC0
ENDCHAR
STARTCHAR SF240000
ENCODING 9553
SWIDTH 708 0
DWIDTH 10 0
BBX 3 17 3 -4
BITMAP
A0
A0
A0
A0
A0
A0
A0
A0
A0
A0
A0
A0
A0
A0
A0
A0
A0
ENDCHAR
STARTCHAR SF510000
ENCODING 9554
SWIDTH 708 0
DWIDTH 10 0
BBX 6 10 4 -4
BITMAP
FC
80
FC
80
80
80
80
80
80
80
ENDCHAR
STARTCHAR SF520000
ENCODING 9555
SWIDTH 708 0
DWIDTH 10 0
BBX 7 9 3 -4
BITMAP
FE
A0
A0
A0
A0
A0
A0
A0
A0
ENDCHAR
STARTCHAR SF390000
ENCODING 9556
SWIDTH 708 0
DWIDTH 10 0
BBX 7 10 3 -4
BITMAP
FE
80
BE
A0
A0
A0
A0
A0
A0
A0
ENDCHAR
STARTCHAR SF220000
ENCODING 9557
SWIDTH 708 0
DWIDTH 10 0
BBX 5 10 0 -4
BITMAP
F8
08
F8
08
08
08
08
08
08
08
ENDCHAR
STARTCHAR SF210000
ENCODING 9558
SWIDTH 708 0
DWIDTH 10 0
BBX 6 9 0 -4
BITMAP
FC
14
14
14
14
14
14
14
14
ENDCHAR
STARTCHAR SF250000
ENCODING 9559
SWIDTH 708 0
DWIDTH 10 0
BBX 6 10 0 -4
BITMAP
FC
04
F4
14
14
14
14
14
14
14
ENDCHAR
STARTCHAR SF500000
ENCODING 9560
SWIDTH 708 0
DWIDTH 10 0
BBX 6 10 4 3
BITMAP
80
80
80
80
80
80
80
FC
80
FC
ENDCHAR
STARTCHAR SF490000
ENCODING 9561
SWIDTH 708 0
DWIDTH 10 0
BBX 7 9 3 4
BITMAP
A0
A0
A0
A0
A0
A0
A0
A0
FE
ENDCHAR
STARTCHAR SF380000
ENCODING 9562
SWIDTH 708 0
DWIDTH 10 0
BBX 7 10 3 3
BITMAP
A0
A0
A0
A0
A0
A0
A0
BE
80
FE
ENDCHAR
STARTCHAR SF280000
ENCODING 9563
SWIDTH 708 0
DWIDTH 10 0
BBX 5 10 0 3
BITMAP
08
08
08
08
08
08
08
F8
08
F8
ENDCHAR
STARTCHAR SF270000
ENCODING 9564
SWIDTH 708 0
DWIDTH 10 0
BBX 6 9 0 4
BITMAP
14
14
14
14
14
14
14
14
FC
ENDCHAR
STARTCHAR SF260000
ENCODING 9565
SWIDTH 708 0
DWIDTH 10 0
BBX 6 10 0 3
BITMAP
14
14
14
14
14
14
14
F4
04
FC
ENDCHAR
STARTCHAR SF360000
ENCODING 9566
SWIDTH 708 0
DWIDTH 10 0
BBX 6 17 4 -4
BITMAP
80
80
80
80
80
80
80
FC
80
FC
80
80
80
80
80
80
80
ENDCHAR
STARTCHAR SF370000
ENCODING 9567
SWIDTH 708 0
DWIDTH 10 0
BBX 7 17 3 -4
BITMAP
A0
A0
A0
A0
A0
A0
A0
A0
BE
A0
A0
A0
A0
A0
A0
A0
A0
ENDCHAR
STARTCHAR SF420000
ENCODING 9568
SWIDTH 708 0
DWIDTH 10 0
BBX 7 17 3 -4
BITMAP
A0
A0
A0
A0
A0
A0
A0
BE
80
BE
A0
A0
A0
A0
A0
A0
A0
ENDCHAR
STARTCHAR SF190000
ENCODING 9569
SWIDTH 708 0
DWIDTH 10 0
BBX 5 17 0 -4
BITMAP
08
08
08
08
08
08
08
F8
08
F8
08
08
08
08
08
08
08
ENDCHAR
STARTCHAR SF200000
ENCODING 9570
SWIDTH 708 0
DWIDTH 10 0
BBX 6 17 0 -4
BITMAP
14
14
14
14
14
14
14
14
F4
14
14
14
14
14
14
14
14
ENDCHAR
STARTCHAR SF230000
ENCODING 9571
SWIDTH 708 0
DWIDTH 10 0
BBX 6 17 0 -4
BITMAP
14
14
14
14
14
14
14
F4
04
F4
14
14
14
14
14
14
14
ENDCHAR
STARTCHAR SF470000
ENCODING 9572
SWIDTH 708 0
DWIDTH 10 0
BBX 10 10 0 -4
BITMAP
FFC0
0000
FFC0
0800
0800
0800
0800
0800
0800
0800
ENDCHAR
STARTCHAR SF480000
ENCODING 9573
SWIDTH 708 0
DWIDTH 10 0
BBX 10 9 0 -4
BITMAP
FFC0
1400
1400
1400
1400
1400
1400
1400
1400
ENDCHAR
STARTCHAR SF410000
ENCODING 9574
SWIDTH 708 0
DWIDTH 10 0
BBX 10 10 0 -4
BITMAP
FFC0
0000
F7C0
1400
1400
1400
1400
1400
1400
1400
ENDCHAR
STARTCHAR SF450000
ENCODING 9575
SWIDTH 708 0
DWIDTH 10 0
BBX 10 10 0 3
BITMAP
0800
0800
0800
0800
0800
0800
0800
FFC0
0000
FFC0
ENDCHAR
STARTCHAR SF460000
ENCODING 9576
SWIDTH 708 0
DWIDTH 10 0
BBX 10 9 0 4
BITMAP
1400
1400
1400
1400
1400
1400
1400
1400
FFC0
ENDCHAR
STARTCHAR SF400000
ENCODING 9577
SWIDTH 708 0
DWIDTH 10 0
BBX 10 10 0 3
BITMAP
1400
1400
1400
1400
1400
1400
1400
F7C0
0000
FFC0
ENDCHAR
STARTCHAR SF540000
ENCODING 9578
SWIDTH 708 0
DWIDTH 10 0
BBX 10 17 0 -4
BITMAP
0800
0800
0800
0800
0800
0800
0800
FFC0
0800
FFC0
0800
0800
0800
0800
0800
0800
0800
ENDCHAR
STARTCHAR SF530000
ENCODING 9579
SWIDTH 708 0
DWIDTH 10 0
BBX 10 17 0 -4
BITMAP
1400
1400
1400
1400
1400
1400
1400
1400
FFC0
1400
1400
1400
1400
1400
1400
1400
1400
ENDCHAR
STARTCHAR SF440000
ENCODING 9580
SWIDTH 708 0
DWIDTH 10 0
BBX 10 17 0 -4
BITMAP
1400
1400
1400
1400
1400
1400
1400
F7C0
0000
F7C0
1400
1400
1400
1400
1400
1400
1400
ENDCHAR
STARTCHAR upblock
ENCODING 9600
SWIDTH 708 0
DWIDTH 10 0
BBX 10 9 0 4
BITMAP
FFC0
FFC0
FFC0
FFC0
FFC0
FFC0
FFC0
FFC0
FFC0
ENDCHAR
STARTCHAR dnblock
ENCODING 9604
SWIDTH 708 0
DWIDTH 10 0
BBX 10 8 0 -4
BITMAP
FFC0
FFC0
FFC0
FFC0
FFC0
FFC0
FFC0
FFC0
ENDCHAR
STARTCHAR block
ENCODING 9608
SWIDTH 708 0
DWIDTH 10 0
BBX 10 17 0 -4
BITMAP
FFC0
FFC0
FFC0
FFC0
FFC0
FFC0
FFC0
FFC0
FFC0
FFC0
FFC0
FFC0
FFC0
FFC0
FFC0
FFC0
FFC0
ENDCHAR
STARTCHAR lfblock
ENCODING 9612
SWIDTH 708 0
DWIDTH 10 0
BBX 5 17 0 -4
BITMAP
F8
F8
F8
F8
F8
F8
F8
F8
F8
F8
F8
F8
F8
F8
F8
F8
F8
ENDCHAR
STARTCHAR rtblock
ENCODING 9616
SWIDTH 708 0
DWIDTH 10 0
BBX 5 17 5 -4
BITMAP
F8
F8
F8
F8
F8
F8
F8
F8
F8
F8
F8
F8
F8
F8
F8
F8
F8
ENDCHAR
STARTCHAR ltshade
ENCODING 9617
SWIDTH 708 0
DWIDTH 10 0
BBX 9 16 1 -4
BITMAP
9480
4900
0000
9480
4900
9480
0000
4900
9480
0000
4900
9480
4900
0000
9480
4900
ENDCHAR
STARTCHAR shade
ENCODING 9618
SWIDTH 708 0
DWIDTH 10 0
BBX 10 16 0 -4
BITMAP
26C0
0000
0000
26C0
D980
0000
0000
D980
26C0
0000
0000
26C0
D980
0000
0000
D980
ENDCHAR
STARTCHAR dkshade
ENCODING 9619
SWIDTH 729 0
DWIDTH 10 0
BBX 10 16 0 -4
BITMAP
24C0
FFC0
FFC0
6EC0
DB40
FFC0
FFC0
DB40
6EC0
FFC0
FFC0
6EC0
DB40
FFC0
FFC0
FFC0
ENDCHAR
STARTCHAR filledbox
ENCODING 9632
SWIDTH 604 0
DWIDTH 8 0
BBX 7 7 1 1
BITMAP
FE
FE
FE
FE
FE
FE
FE
ENDCHAR
STARTCHAR H22073
ENCODING 9633
SWIDTH 604 0
DWIDTH 8 0
BBX 8 8 0 0
BITMAP
FF
81
81
81
81
81
81
FF
ENDCHAR
STARTCHAR H18543
ENCODING 9642
SWIDTH 354 0
DWIDTH 5 0
BBX 3 3 1 3
BITMAP
E0
E0
E0
ENDCHAR
STARTCHAR H18551
ENCODING 9643
SWIDTH 354 0
DWIDTH 5 0
BBX 3 3 1 3
BITMAP
E0
A0
E0
ENDCHAR
STARTCHAR filledrect
ENCODING 9644
SWIDTH 1000 0
DWIDTH 14 0
BBX 14 4 0 0
BITMAP
FFFC
FFFC
FFFC
FFFC
ENDCHAR
STARTCHAR triagup
ENCODING 9650
SWIDTH 989 0
DWIDTH 14 0
BBX 8 8 3 0
BITMAP
10
18
18
3C
3C
7E
7E
FF
ENDCHAR
STARTCHAR triagrt
ENCODING 9658
SWIDTH 989 0
DWIDTH 14 0
BBX 8 8 3 0
BITMAP
80
E0
F8
FE
FF
F8
E0
80
ENDCHAR
STARTCHAR triagdn
ENCODING 9660
SWIDTH 989 0
DWIDTH 14 0
BBX 8 8 3 0
BITMAP
FF
7E
7E
3C
3C
18
18
10
ENDCHAR
STARTCHAR triaglf
ENCODING 9668
SWIDTH 989 0
DWIDTH 14 0
BBX 8 8 3 0
BITMAP
01
07
1F
7F
FF
1F
07
01
ENDCHAR
STARTCHAR lozenge
ENCODING 9674
SWIDTH 494 0
DWIDTH 7 0
BBX 7 10 0 0
BITMAP
10
38
28
44
C6
C6
44
28
38
10
ENDCHAR
STARTCHAR circle
ENCODING 9675
SWIDTH 604 0
DWIDTH 8 0
BBX 6 6 1 1
BITMAP
78
84
84
84
84
78
ENDCHAR
STARTCHAR H18533
ENCODING 9679
SWIDTH 604 0
DWIDTH 8 0
BBX 6 6 1 1
BITMAP
78
FC
FC
FC
FC
78
ENDCHAR
STARTCHAR invbullet
ENCODING 9688
SWIDTH 604 0
DWIDTH 8 0
BBX 8 8 0 0
BITMAP
FF
C3
81
81
81
81
C3
FF
ENDCHAR
STARTCHAR invcircle
ENCODING 9689
SWIDTH 604 0
DWIDTH 8 0
BBX 8 8 0 0
BITMAP
FF
C3
99
BD
BD
99
C3
FF
ENDCHAR
STARTCHAR openbullet
ENCODING 9702
SWIDTH 354 0
DWIDTH 5 0
BBX 3 3 1 3
BITMAP
E0
A0
E0
ENDCHAR
STARTCHAR smileface
ENCODING 9786
SWIDTH 1020 0
DWIDTH 14 0
BBX 8 8 3 0
BITMAP
3C
42
A5
81
A5
99
42
3C
ENDCHAR
STARTCHAR invsmileface
ENCODING 9787
SWIDTH 1052 0
DWIDTH 15 0
BBX 8 8 3 0
BITMAP
3C
7E
DB
FF
DB
E7
7E
3C
ENDCHAR
STARTCHAR sun
ENCODING 9788
SWIDTH 916 0
DWIDTH 13 0
BBX 7 7 3 0
BITMAP
92
7C
44
C6
44
7C
92
ENDCHAR
STARTCHAR female
ENCODING 9792
SWIDTH 750 0
DWIDTH 11 0
BBX 5 8 3 0
BITMAP
60
90
90
70
20
F8
20
20
ENDCHAR
STARTCHAR male
ENCODING 9794
SWIDTH 750 0
DWIDTH 11 0
BBX 6 6 2 2
BITMAP
0C
0C
70
90
90
60
ENDCHAR
STARTCHAR spade
ENCODING 9824
SWIDTH 531 0
DWIDTH 7 0
BBX 7 9 0 0
BITMAP
10
10
38
7C
FE
FE
FE
10
38
ENDCHAR
STARTCHAR club
ENCODING 9827
SWIDTH 656 0
DWIDTH 9 0
BBX 8 8 0 0
BITMAP
18
3C
3C
FF
FF
EF
10
3C
ENDCHAR
STARTCHAR heart
ENCODING 9829
SWIDTH 593 0
DWIDTH 8 0
BBX 7 8 0 0
BITMAP
EE
EE
FE
7C
7C
38
10
10
ENDCHAR
STARTCHAR diamond
ENCODING 9830
SWIDTH 510 0
DWIDTH 7 0
BBX 7 9 0 0
BITMAP
10
10
38
7C
FE
7C
38
10
10
ENDCHAR
STARTCHAR musicalnote
ENCODING 9834
SWIDTH 500 0
DWIDTH 7 0
BBX 5 8 1 0
BITMAP
20
30
38
28
28
28
E0
C0
ENDCHAR
STARTCHAR musicalnotedbl
ENCODING 9835
SWIDTH 750 0
DWIDTH 11 0
BBX 7 8 2 0
BITMAP
0E
32
2E
32
22
22
EE
CC
ENDCHAR
STARTCHAR uniF001
ENCODING 61441
SWIDTH 610 0
DWIDTH 9 0
BBX 8 11 0 0
BITMAP
3B
7B
60
FB
FB
63
63
63
63
63
63
ENDCHAR
STARTCHAR uniF002
ENCODING 61442
SWIDTH 610 0
DWIDTH 9 0
BBX 8 11 0 0
BITMAP
3B
7B
63
FB
FB
63
63
63
63
63
63
ENDCHAR
STARTCHAR uniF005
ENCODING 61445
SWIDTH 333 0
DWIDTH 5 0
BBX 3 3 1 -3
BITMAP
E0
20
E0
ENDCHAR
STARTCHAR uniF001.dup6
ENCODING 64257
SWIDTH 610 0
DWIDTH 9 0
BBX 8 11 0 0
BITMAP
3B
7B
60
FB
FB
63
63
63
63
63
63
ENDCHAR
STARTCHAR uniF002.dup7
ENCODING 64258
SWIDTH 610 0
DWIDTH 9 0
BBX 8 11 0 0
BITMAP
3B
7B
63
FB
FB
63
63
63
63
63
63
ENDCHAR
STARTCHAR .notdef
ENCODING -1
SWIDTH 750 0
DWIDTH 11 0
BBX 9 10 1 0
BITMAP
FF80
8080
8080
8080
8080
8080
8080
8080
8080
FF80
ENDCHAR
STARTCHAR .null
ENCODING -1
SWIDTH 0 0
DWIDTH 0 0
BBX 1 1 0 0
BITMAP
00
ENDCHAR
STARTCHAR nonmarkingreturn
ENCODING -1
SWIDTH 277 0
DWIDTH 4 0
BBX 1 1 0 0
BITMAP
00
ENDCHAR
STARTCHAR middot
ENCODING -1
SWIDTH 333 0
DWIDTH 5 0
BBX 2 2 1 4
BITMAP
C0
C0
ENDCHAR
STARTCHAR commaaccent
ENCODING -1
SWIDTH 333 0
DWIDTH 5 0
BBX 2 3 1 -4
BITMAP
C0
C0
40
ENDCHAR
STARTCHAR foursuperior
ENCODING -1
SWIDTH 333 0
DWIDTH 5 0
BBX 4 5 1 5
BITMAP
20
60
A0
F0
20
ENDCHAR
STARTCHAR fivesuperior
ENCODING -1
SWIDTH 333 0
DWIDTH 5 0
BBX 4 5 0 5
BITMAP
F0
80
F0
10
F0
ENDCHAR
STARTCHAR sevensuperior
ENCODING -1
SWIDTH 333 0
DWIDTH 5 0
BBX 4 5 0 5
BITMAP
F0
20
20
40
40
ENDCHAR
STARTCHAR eightsuperior
ENCODING -1
SWIDTH 333 0
DWIDTH 5 0
BBX 4 5 0 5
BITMAP
F0
90
60
90
F0
ENDCHAR
STARTCHAR cyrillicbreve
ENCODING -1
SWIDTH 333 0
DWIDTH 5 0
BBX 5 2 0 9
BITMAP
D8
70
ENDCHAR
STARTCHAR caroncommaaccent
ENCODING -1
SWIDTH 222 0
DWIDTH 3 0
BBX 2 3 1 7
BITMAP
C0
40
C0
ENDCHAR
STARTCHAR commaaccentrotate
ENCODING -1
SWIDTH 222 0
DWIDTH 3 0
BBX 2 3 1 8
BITMAP
80
C0
C0
ENDCHAR
STARTCHAR grave.uc
ENCODING -1
SWIDTH 333 0
DWIDTH 5 0
BBX 3 2 1 11
BITMAP
C0
60
ENDCHAR
STARTCHAR acute.uc
ENCODING -1
SWIDTH 333 0
DWIDTH 5 0
BBX 3 2 1 11
BITMAP
60
C0
ENDCHAR
STARTCHAR circumflex.uc
ENCODING -1
SWIDTH 333 0
DWIDTH 5 0
BBX 5 2 0 11
BITMAP
70
D8
ENDCHAR
STARTCHAR caron.uc
ENCODING -1
SWIDTH 333 0
DWIDTH 5 0
BBX 5 2 0 11
BITMAP
D8
70
ENDCHAR
STARTCHAR dieresis.uc
ENCODING -1
SWIDTH 333 0
DWIDTH 5 0
BBX 5 2 0 11
BITMAP
D8
D8
ENDCHAR
STARTCHAR tilde.uc
ENCODING -1
SWIDTH 333 0
DWIDTH 5 0
BBX 5 2 0 11
BITMAP
E8
B8
ENDCHAR
STARTCHAR hungarumlaut.uc
ENCODING -1
SWIDTH 333 0
DWIDTH 5 0
BBX 6 2 -1 11
BITMAP
6C
90
ENDCHAR
STARTCHAR breve.uc
ENCODING -1
SWIDTH 333 0
DWIDTH 5 0
BBX 5 2 0 11
BITMAP
88
70
ENDCHAR
ENDFONT
